<svg width="149" height="172" viewBox="0 0 149 172" xmlns="http://www.w3.org/2000/svg"><title>17TH LOGO</title><g fill="none" fill-rule="evenodd"><g stroke="#000" stroke-linecap="round" stroke-width="4"><path d="M113.94 93.121l10.34 20.741a1 1 0 0 1-.896 1.446H25.616a1 1 0 0 1-.895-1.446l48.884-98.067a1 1 0 0 1 1.79 0l13.432 26.946"/><path d="M15.427 76.346c12.541-4.476 23.122-3.975 31.743 1.505 8.542 5.43 23.292 2.367 24.825 1.46M86 63.598l23.572-27.671M96 83.598l36-5m-40.84-5.225l31.968-17.303"/></g><path d="M36 159.887c.104-2.331.186-5.238.244-8.721.059-3.483.088-7.445.088-11.885 0-.99-.01-2.083-.03-3.281a323.8 323.8 0 0 0-.087-3.867L40.53 131c-.078 3.307-.14 6.4-.185 9.277a508.02 508.02 0 0 0-.069 8.008c0 2.37.02 4.476.059 6.319.039 1.842.104 3.603.195 5.283H36zm20.879.761l7.93-25.566H52.445l.918-3.36H68.13l-8.809 28.731-2.441.195zm21.328-26.386a22.26 22.26 0 0 0-1.172-.05 117.742 117.742 0 0 0-4.14.02 70.81 70.81 0 0 0-2.168.088l1.875-2.754c.911.052 1.95.092 3.115.118 1.165.026 2.53.039 4.092.039 1.744 0 3.49-.007 5.234-.02 1.745-.013 3.574-.032 5.488-.058l-1.972 2.675c-1.51-.026-2.699-.045-3.565-.058a75.6 75.6 0 0 0-2.432 0 170.86 170.86 0 0 0-.029 2.06 791.843 791.843 0 0 0 .068 15.332c.053 3.405.13 6.15.235 8.233l-4.902.195c.104-2.227.182-4.928.234-8.105.052-3.178.078-6.752.078-10.723 0-.716-.006-1.849-.02-3.399a508.39 508.39 0 0 1-.019-3.593zm14.004 25.82c.078-1.836.137-3.867.176-6.094.039-2.226.058-4.928.058-8.105 0-3.164-.02-5.853-.058-8.067a249.48 249.48 0 0 0-.176-6.093l4.785-.157c-.091 2.188-.16 4.34-.205 6.455-.046 2.116-.068 4.19-.068 6.221h11.836c0-1.745-.023-3.623-.069-5.635a549.13 549.13 0 0 0-.205-6.884l4.824-.157a406.213 406.213 0 0 0-.195 6.563 343.392 343.392 0 0 0-.078 7.598c0 2.72.026 5.253.078 7.597.052 2.344.124 4.531.215 6.563l-4.844.195c.091-2.513.16-4.84.205-6.982.046-2.142.069-4.203.069-6.182H96.723a306.216 306.216 0 0 0 .273 12.95l-4.785.214z" fill="#000"/></g></svg>