<?xml version="1.0" encoding="UTF-8"?>
<svg width="149px" height="172px" viewBox="0 0 149 172" version="1.1" xmlns="http://www.w3.org/2000/svg" xmlns:xlink="http://www.w3.org/1999/xlink">
    <!-- Generator: Sketch 50.2 (55047) - http://www.bohemiancoding.com/sketch -->
    <title>17TH LOGO</title>
    <desc>Created with Sketch.</desc>
    <defs></defs>
    <g id="17TH-LOGO" stroke="none" stroke-width="1" fill="none" fill-rule="evenodd">
        <g id="Group-18-Copy" transform="translate(15.000000, 15.000000)">
            <g id="Group-9" stroke="#000000" stroke-linecap="round" stroke-width="4">
                <g id="TRIANGLE-LOGO">
                    <path d="M98.9403395,78.1214781 L109.279139,98.8621989 C109.525526,99.3564779 109.32457,99.9569066 108.830291,100.203294 C108.69172,100.272369 108.539001,100.308323 108.384167,100.308323 L10.6158326,100.308323 C10.0635478,100.308323 9.61583259,99.8606074 9.61583259,99.3083227 C9.61583259,99.1534891 9.65178637,99.0007705 9.72086131,98.8621989 L58.6050287,0.795406718 C58.8514161,0.301127728 59.4518448,0.100171848 59.9461238,0.346559196 C60.1405149,0.443458949 60.2980715,0.601015599 60.3949713,0.795406718 L73.8269666,27.741405" id="Triangle"></path>
                    <path d="M0.426585363,61.3461291 C12.9681443,56.8696963 23.5491859,57.3711972 32.16971,62.8506317 C40.7122133,68.2804742 55.4618399,65.2178341 56.9948068,64.310512" id="Path-5-Copy-2"></path>
                    <path d="M79.4968061,52.6373968 L86.0749496,16.8875642" id="Line-5" transform="translate(82.785878, 34.762480) rotate(30.000000) translate(-82.785878, -34.762480) "></path>
                    <path d="M84.7977494,77.3669688 L113.474664,55.0368418" id="Line-5-Copy-2" transform="translate(99.261851, 65.895826) rotate(30.000000) translate(-99.261851, -65.895826) "></path>
                    <path d="M82.6274185,65.2059001 L101.660734,34.2372806" id="Line-5-Copy" transform="translate(92.144076, 49.721590) rotate(30.000000) translate(-92.144076, -49.721590) "></path>
                </g>
            </g>
            <path d="M21,144.886719 C21.1041672,142.555978 21.1855466,139.649106 21.2441406,136.166016 C21.3027347,132.682925 21.3320312,128.721376 21.3320312,124.28125 C21.3320312,123.291662 21.3222657,122.197923 21.3027344,121 C21.283203,119.802077 21.2539064,118.513028 21.2148438,117.132812 L25.53125,116 C25.4531246,119.307308 25.3912763,122.399725 25.3457031,125.277344 C25.30013,128.154962 25.2773438,130.824206 25.2773438,133.285156 C25.2773438,135.65496 25.2968748,137.761058 25.3359375,139.603516 C25.3750002,141.445973 25.4401037,143.207023 25.53125,144.886719 L21,144.886719 Z M41.8789062,145.648438 L49.8085938,120.082031 L37.4453125,120.082031 L38.3632812,116.722656 L53.1289062,116.722656 L44.3203125,145.453125 L41.8789062,145.648438 Z M63.2070312,119.261719 C62.8294252,119.235677 62.4388041,119.219401 62.0351562,119.212891 C61.6315084,119.20638 61.0455768,119.203125 60.2773438,119.203125 C59.4440063,119.203125 58.6497434,119.212891 57.8945312,119.232422 C57.1393191,119.251953 56.4166701,119.28125 55.7265625,119.320312 L57.6015625,116.566406 C58.5130254,116.61849 59.5514265,116.657552 60.7167969,116.683594 C61.8821673,116.709636 63.2460859,116.722656 64.8085938,116.722656 C66.5533941,116.722656 68.2981684,116.716146 70.0429688,116.703125 C71.7877691,116.690104 73.6171779,116.670573 75.53125,116.644531 L73.5585938,119.320312 C72.0481695,119.294271 70.8600304,119.27474 69.9941406,119.261719 C69.1282509,119.248698 68.3177121,119.248698 67.5625,119.261719 C67.5494791,119.886722 67.5397136,120.573564 67.5332031,121.322266 C67.5266927,122.070967 67.5234375,123.207024 67.5234375,124.730469 C67.5234375,129.274762 67.5494789,133.249332 67.6015625,136.654297 C67.6536461,140.059262 67.7317703,142.803375 67.8359375,144.886719 L62.9335938,145.082031 C63.0377609,142.855458 63.1158852,140.153662 63.1679688,136.976562 C63.2200523,133.799463 63.2460938,130.22528 63.2460938,126.253906 C63.2460938,125.537757 63.2395834,124.404956 63.2265625,122.855469 C63.2135416,121.305982 63.2070312,120.108077 63.2070312,119.261719 Z M77.2109375,145.082031 C77.2890629,143.246085 77.3476561,141.214855 77.3867188,138.988281 C77.4257814,136.761708 77.4453125,134.059912 77.4453125,130.882812 C77.4453125,127.718734 77.4257814,125.029959 77.3867188,122.816406 C77.3476561,120.602854 77.2890629,118.571624 77.2109375,116.722656 L81.9960938,116.566406 C81.9049475,118.753917 81.8365888,120.905588 81.7910156,123.021484 C81.7454425,125.13738 81.7226562,127.210927 81.7226562,129.242188 L93.5585938,129.242188 C93.5585938,127.497387 93.5358075,125.619151 93.4902344,123.607422 C93.4446612,121.595693 93.3763025,119.300794 93.2851562,116.722656 L98.109375,116.566406 C98.0312496,118.597666 97.9661461,120.785145 97.9140625,123.128906 C97.8619789,125.472668 97.8359375,128.005195 97.8359375,130.726562 C97.8359375,133.44793 97.8619789,135.980457 97.9140625,138.324219 C97.9661461,140.66798 98.03776,142.855459 98.1289062,144.886719 L93.2851562,145.082031 C93.3763025,142.568998 93.4446612,140.241547 93.4902344,138.099609 C93.5358075,135.957672 93.5585938,133.897145 93.5585938,131.917969 L81.7226562,131.917969 C81.7226562,134.079438 81.7454425,136.237619 81.7910156,138.392578 C81.8365888,140.547537 81.9049475,142.705718 81.9960938,144.867188 L77.2109375,145.082031 Z" id="17TH" fill="#000000"></path>
        </g>
    </g>
</svg>