<?xml version="1.0" encoding="UTF-8"?>
<svg width="111px" height="148px" viewBox="0 0 111 148" version="1.1" xmlns="http://www.w3.org/2000/svg" xmlns:xlink="http://www.w3.org/1999/xlink">
    <!-- Generator: Sketch 50.2 (55047) - http://www.bohemiancoding.com/sketch -->
    <title>17TH LOGO</title>
    <desc>Created with Sketch.</desc>
    <defs></defs>
    <g id="Page-1" stroke="none" stroke-width="1" fill="none" fill-rule="evenodd">
        <g id="Homepage---Fiction-Copy-2" transform="translate(-206.000000, -175.000000)">
            <g id="17TH-LOGO" transform="translate(190.000000, 162.000000)">
                <g id="Group-18-Copy" transform="translate(18.000000, 15.000000)">
                    <g id="Group-9" stroke="#000000" stroke-linecap="round" stroke-width="4">
                        <g id="TRIANGLE-LOGO">
                            <path d="M95.9403395,78.1214781 L106.279139,98.8621989 C106.525526,99.3564779 106.32457,99.9569066 105.830291,100.203294 C105.69172,100.272369 105.539001,100.308323 105.384167,100.308323 L7.61583259,100.308323 C7.06354784,100.308323 6.61583259,99.8606074 6.61583259,99.3083227 C6.61583259,99.1534891 6.65178637,99.0007705 6.72086131,98.8621989 L55.6050287,0.795406718 C55.8514161,0.301127728 56.4518448,0.100171848 56.9461238,0.346559196 C57.1405149,0.443458949 57.2980715,0.601015599 57.3949713,0.795406718 L70.8269666,27.741405" id="Triangle"></path>
                            <path d="M0,56.0190917 C12.541559,51.5426588 23.1226005,52.0441597 31.7431246,57.5235943 C40.2856279,62.9534367 55.0352546,59.8907967 56.5682214,58.9834745" id="Path-5-Copy-2"></path>
                            <path d="M0,73.0190917 C12.541559,68.5426588 23.1226005,69.0441597 31.7431246,74.5235943 C40.2856279,79.9534367 55.0352546,76.8907967 56.5682214,75.9834745" id="Path-5-Copy-3"></path>
                            <path d="M0,39.0399874 C12.541559,34.5635546 23.1226005,35.0650555 31.7431246,40.54449 C40.2856279,45.9743324 55.0352546,42.9116924 56.5682214,42.0043703" id="Path-5-Copy-4"></path>
                        </g>
                    </g>
                    <path d="M18,144.886719 C18.1041672,142.555978 18.1855466,139.649106 18.2441406,136.166016 C18.3027347,132.682925 18.3320312,128.721376 18.3320312,124.28125 C18.3320312,123.291662 18.3222657,122.197923 18.3027344,121 C18.283203,119.802077 18.2539064,118.513028 18.2148438,117.132812 L22.53125,116 C22.4531246,119.307308 22.3912763,122.399725 22.3457031,125.277344 C22.30013,128.154962 22.2773438,130.824206 22.2773438,133.285156 C22.2773438,135.65496 22.2968748,137.761058 22.3359375,139.603516 C22.3750002,141.445973 22.4401037,143.207023 22.53125,144.886719 L18,144.886719 Z M38.8789062,145.648438 L46.8085938,120.082031 L34.4453125,120.082031 L35.3632812,116.722656 L50.1289062,116.722656 L41.3203125,145.453125 L38.8789062,145.648438 Z M60.2070312,119.261719 C59.8294252,119.235677 59.4388041,119.219401 59.0351562,119.212891 C58.6315084,119.20638 58.0455768,119.203125 57.2773438,119.203125 C56.4440063,119.203125 55.6497434,119.212891 54.8945312,119.232422 C54.1393191,119.251953 53.4166701,119.28125 52.7265625,119.320312 L54.6015625,116.566406 C55.5130254,116.61849 56.5514265,116.657552 57.7167969,116.683594 C58.8821673,116.709636 60.2460859,116.722656 61.8085938,116.722656 C63.5533941,116.722656 65.2981684,116.716146 67.0429688,116.703125 C68.7877691,116.690104 70.6171779,116.670573 72.53125,116.644531 L70.5585938,119.320312 C69.0481695,119.294271 67.8600304,119.27474 66.9941406,119.261719 C66.1282509,119.248698 65.3177121,119.248698 64.5625,119.261719 C64.5494791,119.886722 64.5397136,120.573564 64.5332031,121.322266 C64.5266927,122.070967 64.5234375,123.207024 64.5234375,124.730469 C64.5234375,129.274762 64.5494789,133.249332 64.6015625,136.654297 C64.6536461,140.059262 64.7317703,142.803375 64.8359375,144.886719 L59.9335938,145.082031 C60.0377609,142.855458 60.1158852,140.153662 60.1679688,136.976562 C60.2200523,133.799463 60.2460938,130.22528 60.2460938,126.253906 C60.2460938,125.537757 60.2395834,124.404956 60.2265625,122.855469 C60.2135416,121.305982 60.2070312,120.108077 60.2070312,119.261719 Z M74.2109375,145.082031 C74.2890629,143.246085 74.3476561,141.214855 74.3867188,138.988281 C74.4257814,136.761708 74.4453125,134.059912 74.4453125,130.882812 C74.4453125,127.718734 74.4257814,125.029959 74.3867188,122.816406 C74.3476561,120.602854 74.2890629,118.571624 74.2109375,116.722656 L78.9960938,116.566406 C78.9049475,118.753917 78.8365888,120.905588 78.7910156,123.021484 C78.7454425,125.13738 78.7226562,127.210927 78.7226562,129.242188 L90.5585938,129.242188 C90.5585938,127.497387 90.5358075,125.619151 90.4902344,123.607422 C90.4446612,121.595693 90.3763025,119.300794 90.2851562,116.722656 L95.109375,116.566406 C95.0312496,118.597666 94.9661461,120.785145 94.9140625,123.128906 C94.8619789,125.472668 94.8359375,128.005195 94.8359375,130.726562 C94.8359375,133.44793 94.8619789,135.980457 94.9140625,138.324219 C94.9661461,140.66798 95.03776,142.855459 95.1289062,144.886719 L90.2851562,145.082031 C90.3763025,142.568998 90.4446612,140.241547 90.4902344,138.099609 C90.5358075,135.957672 90.5585938,133.897145 90.5585938,131.917969 L78.7226562,131.917969 C78.7226562,134.079438 78.7454425,136.237619 78.7910156,138.392578 C78.8365888,140.547537 78.9049475,142.705718 78.9960938,144.867188 L74.2109375,145.082031 Z" id="17TH" fill="#000000"></path>
                </g>
            </g>
        </g>
    </g>
</svg>