<svg width="90" height="78" viewBox="0 0 90 78" xmlns="http://www.w3.org/2000/svg"><title>Fresh!</title><path d="M22.605 58.999l-2.323 9.655c-.458 1.927-2.464 8.212-4.058 9.132-.485.28-1.051.1-1.331-.386-.56-.97-.145-3.611.113-4.684.374-1.832 1.058-2.966 2.343-4.262l1.573-6.636L14 65.214c-.222.175-1.677 1.015-2.027.57-.698-.89-1.04-1.802-.479-2.91.674-1.313 2.54-3.36 3.717-4.363l4.72-4.065c.263-2.184.309-8.585-.671-10.282-.4-.693-.9-.358-1.489-.018-.07.04-.322.001-2.715 1.937-3.604 2.958-7.007 6.263-9.76 9.976l.11.03 1.781-1.075c.243-.14.638-.415.838-.068.24.415-.462.96-.699 1.189l-3.298 3.567C2.092 61.789 1.54 61.553 1.18 60.93.6 59.925.575 55.32.788 54.09c.37-2.478 2.021-3.939 3.77-5.549 7.877-7.318 10.415-8.922 12.458-10.102 1.247-.72 3.648-1.922 4.628-.224 1.48 2.563 1.52 11.593 1.282 14.779l2.54-.959-.105 3.017c-.017.61.035 1.18-.295 1.649-.562.786-1.764 1.665-2.46 2.298zm10.19-9.07l-3.142 2.876c-.113 2.605-1.048 4.346-1.677 6.696l-1.019-1.444c.48-1.248.708-2.534.826-3.85-.767.351-1.135.194-1.555-.533-1.44-2.494.654-7.028 1.485-7.508.346-.2.783-.083.963.228.2.347.277.719.318 1.11 2.996-2.33 4.662-3.846 5.248-3.63.9.358 1.462.772 1.891 1.356.62 1.074.262 1.974-.155 3.092-.504 1.446-1.222 4.123-.422 5.509.32.554 1.115.65 1.634.35 1.49-.86 2.372-4.372 3.015-5.898l.983 1.142c-.457 2.25-2.22 8.394-4.195 9.534-1.455.84-3.135.01-3.895-1.307-1.36-2.355-.619-5.231-.193-7.694l-.11-.03zm19.628-8.885l1.072 1.137c-.693 3.68-2.624 9.136-6.053 11.116-2.53 1.46-5.007-.112-6.396-2.358-2.759-4.458-.416-12 4.107-14.566 1.109-.64 2.655-1.162 3.455.223.98 1.698.762 5.241-4.629 11.263l.37.802c.657 1.377 2.06 1.167 3.169.527 2.46-1.42 3.909-5.629 4.905-8.144zm-9.216 4.998c2.448-2.8 3.147-6.39 2.772-6.958-.14-.243-.433-.35-.635-.141-1.473 1.45-2.522 4.273-2.137 7.099zm12.328-11.367l-2.288 7.557c1.322-.671 2.704-.037 3.882.483 1.338-2.481 1.553-3.39.496-5.46a97.672 97.672 0 0 0-2.09-2.58zm7.911 2.823l1.159-2.794 1.106 1.116c-.893 3.334-2.849 8.666-5.7 10.127-2.381 1.236-5.704 1.4-7.788-.769-.088.328-.19.71-.502.89-.346.2-.789-.006-.969-.318-.26-.45.014-1.255.131-1.692l3.537-11.234c-.59-1.183-.572-2.671.675-3.391 1.04-.6 1.427-.409 2.091.501.899 1.237 2.098 2.115 2.978 3.639 1.64 2.84.574 6.273-.863 8.904 2.437-.898 3.188-2.718 4.145-4.98zm3.862-4.031l.78 1.35c.918-2.33 4.022-11.513 5.928-12.613.83-.48 2.162-.094 2.622.703.38.658-.125 2.982-.261 3.707-.648 3.838-.484 3.882-.284 4.229.26.45.767.527 1.182.287 1.143-.66 2.592-3.99 3.217-5.229l.993 1.32c-.893 2.133-3.125 7.948-5.03 9.048-1.04.6-2.114.02-2.654-.916-1.26-2.183-.39-6.195-.082-8.543l-.11-.03c-3.583 7.473-3.195 12.145-4.304 12.785-1.212.7-2.946-1.902-3.406-2.699-1.38-2.39-1.439-4.573-1.366-7.247.187-9.115 3.58-19.157 4.759-19.837.554-.32 1.63-.618 2.03.075 1.36 2.356-3.057 20.147-4.014 23.61zm20.98-3.984c-.901.52-2.311.318-2.831-.582-.7-1.213-1.678-4.667-.431-5.387 1.212-.7 2.748-.2 3.428.977.7 1.213 1.427 4.072-.167 4.992zm-5.363-12.007L81.37 3.5c-.088-.872-.396-2.126.505-2.646.38-.22 1.248-.398 1.635-.529.406-.096 1.49-.537 1.81.017.34.59.393 2.36.436 3.074l.78 15.67c.223.148.392.281.512.489.36.623.43 1.784-.263 2.184-.796.46-2.678.16-3.158-.67-.46-.797-.593-2.707-.7-3.614z" fill="#1E1E1E" fill-rule="evenodd"/></svg>