<?xml version="1.0" encoding="UTF-8"?>
<svg width="90px" height="78px" viewBox="0 0 90 78" version="1.1" xmlns="http://www.w3.org/2000/svg" xmlns:xlink="http://www.w3.org/1999/xlink">
    <!-- Generator: Sketch 50.2 (55047) - http://www.bohemiancoding.com/sketch -->
    <title>Fresh!</title>
    <desc>Created with Sketch.</desc>
    <defs></defs>
    <g id="Page-1" stroke="none" stroke-width="1" fill="none" fill-rule="evenodd">
        <g id="Homepage---Fiction-Copy-2" transform="translate(-196.000000, -1151.000000)" fill="#1E1E1E">
            <g id="Group-9" transform="translate(158.000000, 1151.000000)">
                <path d="M54.4,43.4805081 L47.56,50.6805081 C46.2,52.1205081 41.32,56.5605081 39.48,56.5605081 C38.92,56.5605081 38.52,56.1205081 38.52,55.5605081 C38.52,54.4405081 40.2,52.3605081 40.96,51.5605081 C42.2,50.1605081 43.36,49.5205081 45.12,49.0405081 L49.8,44.0805081 L43.84,44.5605081 C43.56,44.6005081 41.88,44.6005081 41.8,44.0405081 C41.64,42.9205081 41.8,41.9605081 42.84,41.2805081 C44.08,40.4805081 46.72,39.6405081 48.24,39.3605081 L54.36,38.2005081 C55.68,36.4405081 58.92,30.9205081 58.92,28.9605081 C58.92,28.1605081 58.32,28.2005081 57.64,28.2005081 C57.56,28.2005081 57.36,28.0405081 54.32,28.5205081 C49.72,29.2805081 45.12,30.4405081 40.88,32.2805081 L40.96,32.3605081 L43.04,32.3205081 C43.32,32.3205081 43.8,32.2805081 43.8,32.6805081 C43.8,33.1605081 42.92,33.2805081 42.6,33.3605081 L37.96,34.8005081 C35.24,35.6405081 34.88,35.1605081 34.88,34.4405081 C34.88,33.2805081 37.16,29.2805081 37.96,28.3205081 C39.52,26.3605081 41.68,25.9205081 44,25.4005081 C54.48,23.0005081 57.48,22.8805081 59.84,22.8805081 C61.28,22.8805081 63.96,23.0405081 63.96,25.0005081 C63.96,27.9605081 59.48,35.8005081 57.68,38.4405081 L60.36,38.8805081 L58.76,41.4405081 C58.44,41.9605081 58.2,42.4805081 57.68,42.7205081 C56.8,43.1205081 55.32,43.2805081 54.4,43.4805081 Z M67.76,40.7205081 L63.6,41.6405081 C62.2,43.8405081 60.52,44.8805081 58.8,46.6005081 L58.64,44.8405081 C59.68,44.0005081 60.52,43.0005081 61.28,41.9205081 C60.44,41.8405081 60.2,41.5205081 60.2,40.6805081 C60.2,37.8005081 64.28,34.9205081 65.24,34.9205081 C65.64,34.9205081 65.96,35.2405081 65.96,35.6005081 C65.96,36.0005081 65.84,36.3605081 65.68,36.7205081 C69.44,36.2005081 71.64,35.7205081 72.04,36.2005081 C72.64,36.9605081 72.92,37.6005081 73,38.3205081 C73,39.5605081 72.24,40.1605081 71.32,40.9205081 C70.16,41.9205081 68.2,43.8805081 68.2,45.4805081 C68.2,46.1205081 68.84,46.6005081 69.44,46.6005081 C71.16,46.6005081 73.68,44.0005081 75,43.0005081 L75.28,44.4805081 C73.76,46.2005081 69.16,50.6405081 66.88,50.6405081 C65.2,50.6405081 64.16,49.0805081 64.16,47.5605081 C64.16,44.8405081 66.24,42.7205081 67.84,40.8005081 L67.76,40.7205081 Z M89.2,42.8405081 L89.56,44.3605081 C87.12,47.2005081 82.72,50.9605081 78.76,50.9605081 C75.84,50.9605081 74.48,48.3605081 74.4,45.7205081 C74.24,40.4805081 80.04,35.1205081 85.24,35.1605081 C86.52,35.1605081 88.12,35.4805081 88.12,37.0805081 C88.12,39.0405081 86.16,42.0005081 78.48,44.5205081 L78.4,45.4005081 C78.28,46.9205081 79.6,47.4405081 80.88,47.4405081 C83.72,47.4405081 87.08,44.5205081 89.2,42.8405081 Z M78.72,42.5605081 C82.24,41.3605081 84.64,38.6005081 84.6,37.9205081 C84.6,37.6405081 84.4,37.4005081 84.12,37.4805081 C82.12,38.0005081 79.8,39.9205081 78.72,42.5605081 Z M95.08,38.8805081 L89.32,44.2805081 C90.8,44.3605081 91.68,45.6005081 92.44,46.6405081 C94.84,45.1605081 95.48,44.4805081 95.6,42.1605081 C95.48,41.3205081 95.32,40.2405081 95.08,38.8805081 Z M100.52,45.2805081 L102.92,43.4405081 L103.32,44.9605081 C100.88,47.4005081 96.52,51.0405081 93.32,50.8805081 C90.64,50.7605081 87.68,49.2405081 86.96,46.3205081 C86.72,46.5605081 86.44,46.8405081 86.08,46.8405081 C85.68,46.8405081 85.4,46.4405081 85.4,46.0805081 C85.4,45.5605081 86.04,45.0005081 86.36,44.6805081 L95.04,36.7205081 C95.12,35.4005081 95.88,34.1205081 97.32,34.1205081 C98.52,34.1205081 98.76,34.4805081 98.88,35.6005081 C99.04,37.1205081 99.64,38.4805081 99.64,40.2405081 C99.64,43.5205081 97,45.9605081 94.44,47.5205081 C97,47.9605081 98.56,46.7605081 100.52,45.2805081 Z M105.88,43.7205081 L105.88,45.2805081 C107.84,43.7205081 115.12,37.3205081 117.32,37.3205081 C118.28,37.3205081 119.24,38.3205081 119.24,39.2405081 C119.24,40.0005081 117.64,41.7605081 117.16,42.3205081 C114.68,45.3205081 114.8,45.4405081 114.8,45.8405081 C114.8,46.3605081 115.2,46.6805081 115.68,46.6805081 C117,46.6805081 119.92,44.5205081 121.08,43.7605081 L121.28,45.4005081 C119.44,46.8005081 114.6,50.7205081 112.4,50.7205081 C111.2,50.7205081 110.56,49.6805081 110.56,48.6005081 C110.56,46.0805081 113.32,43.0405081 114.76,41.1605081 L114.68,41.0805081 C107.84,45.7605081 105.84,50.0005081 104.56,50.0005081 C103.16,50.0005081 102.96,46.8805081 102.96,45.9605081 C102.96,43.2005081 104,41.2805081 105.4,39.0005081 C110.12,31.2005081 118.08,24.2005081 119.44,24.2005081 C120.08,24.2005081 121.16,24.4805081 121.16,25.2805081 C121.16,28.0005081 108.44,41.2005081 105.88,43.7205081 Z M126.04,50.7605081 C125,50.7605081 123.88,49.8805081 123.88,48.8405081 C123.88,47.4405081 124.76,43.9605081 126.2,43.9605081 C127.6,43.9605081 128.68,45.1605081 128.68,46.5205081 C128.68,47.9205081 127.88,50.7605081 126.04,50.7605081 Z M127.4,37.6805081 L133.04,24.8005081 C133.4,24.0005081 133.76,22.7605081 134.8,22.7605081 C135.24,22.7605081 136.08,23.0405081 136.48,23.1205081 C136.88,23.2405081 138.04,23.4005081 138.04,24.0405081 C138.04,24.7205081 137.2,26.2805081 136.88,26.9205081 L129.72,40.8805081 C129.84,41.1205081 129.92,41.3205081 129.92,41.5605081 C129.92,42.2805081 129.4,43.3205081 128.6,43.3205081 C127.68,43.3205081 126.2,42.1205081 126.2,41.1605081 C126.2,40.2405081 127.04,38.5205081 127.4,37.6805081 Z" id="Fresh!" transform="translate(86.460000, 39.660508) rotate(-30.000000) translate(-86.460000, -39.660508) "></path>
            </g>
        </g>
    </g>
</svg>