<?xml version="1.0" encoding="UTF-8"?>
<svg width="378px" height="144px" viewBox="0 0 378 144" version="1.1" xmlns="http://www.w3.org/2000/svg" xmlns:xlink="http://www.w3.org/1999/xlink">
    <!-- Generator: Sketch 50.2 (55047) - http://www.bohemiancoding.com/sketch -->
    <title>Group 5</title>
    <desc>Created with Sketch.</desc>
    <defs></defs>
    <g id="Symbols" stroke="none" stroke-width="1" fill="none" fill-rule="evenodd">
        <g id="Listen" fill="#000000">
            <g id="Group-5">
                <g id="Group-3">
                    <g id="Page-1" transform="translate(0.000000, 80.000000)">
                        <g id="Group-12">
                            <path d="M32,2.84444444 C15.8976,2.84444444 2.84444444,15.8976 2.84444444,32 C2.84444444,48.1024 15.8976,61.1555556 32,61.1555556 C48.1024,61.1555556 61.1555556,48.1024 61.1555556,32 C61.1555556,15.8976 48.1024,2.84444444 32,2.84444444 M32,64 C14.3267556,64 0,49.6732444 0,32 C0,14.3267556 14.3267556,0 32,0 C49.6732444,0 64,14.3267556 64,32 C63.9808,49.6654222 49.6654222,63.9808 32,64" id="Fill-1"></path>
                            <path d="M26.5316267,23.7156267 L26.5316267,40.2845156 L40.8818489,32.0000711 L26.5316267,23.7156267 Z M25.1094044,44.1671822 C24.3243378,44.1671822 23.6871822,43.5307378 23.6871822,42.74496 L23.6871822,21.2551822 C23.6878933,20.4701156 24.3250489,19.8336711 25.1108267,19.8343822 C25.3604267,19.8343822 25.6043378,19.9005156 25.8205156,20.02496 L44.4374044,30.7698489 C45.1165156,31.1638044 45.3476267,32.0342044 44.9543822,32.7133156 C44.8299378,32.9280711 44.6514489,33.1058489 44.4374044,33.2302933 L25.8205156,43.9822933 C25.6036267,44.1046044 25.3582933,44.1686044 25.1094044,44.1671822 Z" id="Fill-3"></path>
                            <path d="M26.7962794,41.8004782 C26.1359332,41.8004782 25.6,41.264545 25.6,40.6041988 L25.6,22.528417 C25.6005981,21.8674726 26.1365313,21.3327357 26.7974757,21.3333338 C27.0074227,21.3333338 27.2125846,21.3889608 27.3944191,21.4936353 L43.0537165,30.5315262 C43.6249399,30.8628956 43.8193353,31.5950186 43.4885641,32.166242 C43.3838896,32.346282 43.2337566,32.4964151 43.0537165,32.6010895 L27.3944191,41.6443637 C27.2119865,41.7478419 27.0056283,41.8016744 26.7962794,41.8004782" id="Fill-1"></path>
                        </g>
                    </g>
                    <g id="Group-13" transform="translate(12.000000, 0.000000)">
                        <path d="M42.815534,64 L47.0970874,64 L47.0970874,0 L42.815534,0 L42.815534,64 Z M34.2524272,57.6 L38.5339806,57.6 L38.5339806,6.4 L34.2524272,6.4 L34.2524272,57.6 Z M17.1262136,51.2 L21.407767,51.2 L21.407767,12.8 L17.1262136,12.8 L17.1262136,51.2 Z M51.3786408,49.0666667 L55.6601942,49.0666667 L55.6601942,14.9333333 L51.3786408,14.9333333 L51.3786408,49.0666667 Z M8.5631068,46.9333333 L12.846801,46.9333333 L12.846801,17.0688 L8.5631068,17.0688 L8.5631068,46.9333333 Z M59.9417476,44.8 L64.223301,44.8 L64.223301,19.2 L59.9417476,19.2 L59.9417476,44.8 Z M25.6893204,44.8 L29.9730146,44.8 L29.9730146,19.2 L25.6893204,19.2 L25.6893204,44.8 Z M0,40.5333333 L4.2815534,40.5333333 L4.2815534,23.4666667 L0,23.4666667 L0,40.5333333 Z" id="Page-1"></path>
                        <path d="M111.320388,64 L115.601942,64 L115.601942,0 L111.320388,0 L111.320388,64 Z M102.757282,57.6 L107.038835,57.6 L107.038835,6.4 L102.757282,6.4 L102.757282,57.6 Z M85.631068,51.2 L89.9126214,51.2 L89.9126214,12.8 L85.631068,12.8 L85.631068,51.2 Z M119.883495,49.0666667 L124.165049,49.0666667 L124.165049,14.9333333 L119.883495,14.9333333 L119.883495,49.0666667 Z M77.0679612,46.9333333 L81.3516553,46.9333333 L81.3516553,17.0688 L77.0679612,17.0688 L77.0679612,46.9333333 Z M128.446602,44.8 L132.728155,44.8 L132.728155,19.2 L128.446602,19.2 L128.446602,44.8 Z M94.1941748,44.8 L98.4778689,44.8 L98.4778689,19.2 L94.1941748,19.2 L94.1941748,44.8 Z M68.5048544,40.5333333 L72.7864078,40.5333333 L72.7864078,23.4666667 L68.5048544,23.4666667 L68.5048544,40.5333333 Z" id="Page-1"></path>
                        <path d="M179.825243,64 L184.106796,64 L184.106796,0 L179.825243,0 L179.825243,64 Z M171.262136,57.6 L175.543689,57.6 L175.543689,6.4 L171.262136,6.4 L171.262136,57.6 Z M154.135922,51.2 L158.417476,51.2 L158.417476,12.8 L154.135922,12.8 L154.135922,51.2 Z M188.38835,49.0666667 L192.669903,49.0666667 L192.669903,14.9333333 L188.38835,14.9333333 L188.38835,49.0666667 Z M145.572816,46.9333333 L149.85651,46.9333333 L149.85651,17.0688 L145.572816,17.0688 L145.572816,46.9333333 Z M196.951456,44.8 L201.23301,44.8 L201.23301,19.2 L196.951456,19.2 L196.951456,44.8 Z M162.699029,44.8 L166.982723,44.8 L166.982723,19.2 L162.699029,19.2 L162.699029,44.8 Z M137.009709,40.5333333 L141.291262,40.5333333 L141.291262,23.4666667 L137.009709,23.4666667 L137.009709,40.5333333 Z" id="Page-1"></path>
                        <path d="M248.330097,64 L252.61165,64 L252.61165,0 L248.330097,0 L248.330097,64 Z M239.76699,57.6 L244.048544,57.6 L244.048544,6.4 L239.76699,6.4 L239.76699,57.6 Z M222.640777,51.2 L226.92233,51.2 L226.92233,12.8 L222.640777,12.8 L222.640777,51.2 Z M256.893204,49.0666667 L261.174757,49.0666667 L261.174757,14.9333333 L256.893204,14.9333333 L256.893204,49.0666667 Z M214.07767,46.9333333 L218.361364,46.9333333 L218.361364,17.0688 L214.07767,17.0688 L214.07767,46.9333333 Z M265.456311,44.8 L269.737864,44.8 L269.737864,19.2 L265.456311,19.2 L265.456311,44.8 Z M231.203883,44.8 L235.487578,44.8 L235.487578,19.2 L231.203883,19.2 L231.203883,44.8 Z M205.514563,40.5333333 L209.796117,40.5333333 L209.796117,23.4666667 L205.514563,23.4666667 L205.514563,40.5333333 Z" id="Page-1"></path>
                        <path d="M316.834951,64 L321.116505,64 L321.116505,0 L316.834951,0 L316.834951,64 Z M308.271845,57.6 L312.553398,57.6 L312.553398,6.4 L308.271845,6.4 L308.271845,57.6 Z M291.145631,51.2 L295.427184,51.2 L295.427184,12.8 L291.145631,12.8 L291.145631,51.2 Z M325.398058,49.0666667 L329.679612,49.0666667 L329.679612,14.9333333 L325.398058,14.9333333 L325.398058,49.0666667 Z M282.582524,46.9333333 L286.866218,46.9333333 L286.866218,17.0688 L282.582524,17.0688 L282.582524,46.9333333 Z M333.961165,44.8 L338.242718,44.8 L338.242718,19.2 L333.961165,19.2 L333.961165,44.8 Z M299.708738,44.8 L303.992432,44.8 L303.992432,19.2 L299.708738,19.2 L299.708738,44.8 Z M274.019417,40.5333333 L278.300971,40.5333333 L278.300971,23.4666667 L274.019417,23.4666667 L274.019417,40.5333333 Z" id="Page-1"></path>
                    </g>
                </g>
                <path d="M74.2402344,109 C74.2858075,107.99088 74.3199869,106.906907 74.3427734,105.748047 C74.36556,104.589187 74.3769531,103.339199 74.3769531,101.998047 C74.3769531,100.663405 74.36556,99.4101621 74.3427734,98.2382812 C74.3199869,97.0664004 74.2858075,95.9596406 74.2402344,94.9179688 L76.6914062,94.8398438 C76.6523436,95.901047 76.6214194,97.0159447 76.5986328,98.1845703 C76.5758462,99.3531959 76.5644531,100.598301 76.5644531,101.919922 C76.5644531,102.903 76.5839842,104.572905 76.6230469,106.929688 C76.6295573,107.2487 76.6360677,107.492838 76.6425781,107.662109 L77.8632812,107.662109 C78.670577,107.662109 79.365557,107.653971 79.9482422,107.637695 C80.5309274,107.621419 81.0598935,107.597005 81.5351562,107.564453 C81.4374995,107.766277 81.3414718,107.986001 81.2470703,108.223633 C81.1526688,108.461264 81.0501308,108.752602 80.9394531,109.097656 C80.3209604,109.065104 79.7757185,109.04069 79.3037109,109.024414 C78.8317034,109.008138 78.4101581,109 78.0390625,109 L74.2402344,109 Z M84.1921875,95.5039062 L85.6082031,96.1777344 L84.1921875,97.7792969 L82.7664063,97.1152344 L84.1921875,95.5039062 Z M85.2859375,99.703125 C85.2729166,100.243492 85.2631511,100.831052 85.2566406,101.46582 C85.2501302,102.100589 85.246875,103.059238 85.246875,104.341797 C85.246875,105.624355 85.2501302,106.584632 85.2566406,107.222656 C85.2631511,107.86068 85.2729166,108.453122 85.2859375,109 L83.2644531,109.097656 C83.277474,108.505205 83.2872396,107.880212 83.29375,107.222656 C83.3002604,106.565101 83.3035156,105.637376 83.3035156,104.439453 C83.3035156,103.24153 83.3002604,102.313805 83.29375,101.65625 C83.2872396,100.998695 83.277474,100.373701 83.2644531,99.78125 L85.2859375,99.703125 Z M87.4253906,107.242188 L89.1441406,106.421875 C89.4045586,107.020836 89.6958968,107.470051 90.0181641,107.769531 C90.3404313,108.069012 90.6936179,108.21875 91.0777344,108.21875 L91.2046875,108.21875 C91.3479174,108.042968 91.4602209,107.841147 91.5416016,107.613281 C91.6229822,107.385416 91.6636719,107.154298 91.6636719,106.919922 C91.6636719,106.60091 91.5692718,106.337241 91.3804688,106.128906 C91.1916657,105.920572 90.7912791,105.682944 90.1792969,105.416016 L90.0816406,105.376953 C88.4149656,104.634762 87.5816406,103.736333 87.5816406,102.681641 C87.5816406,102.173826 87.66302,101.755535 87.8257813,101.426758 C87.9885425,101.09798 88.2619772,100.803387 88.6460938,100.542969 C89.127867,100.204425 89.5754537,99.9326182 89.9888672,99.7275391 C90.4022807,99.5224599 90.6871086,99.4199219 90.8433594,99.4199219 C91.3641953,99.4199219 91.8410786,99.6022117 92.2740234,99.9667969 C92.7069683,100.331382 93.043879,100.835934 93.2847656,101.480469 L91.6636719,102.339844 C91.4618479,101.760414 91.2030615,101.335613 90.8873047,101.06543 C90.5715479,100.795246 90.176044,100.660156 89.7007813,100.660156 C89.6161454,100.660156 89.5510419,100.661784 89.5054688,100.665039 C89.4598956,100.668294 89.4175783,100.676432 89.3785156,100.689453 C89.267838,100.832683 89.1815758,101.000325 89.1197266,101.192383 C89.0578773,101.384441 89.0269531,101.574869 89.0269531,101.763672 C89.0269531,102.069663 89.1278636,102.343098 89.3296875,102.583984 C89.5315114,102.824871 89.8505187,103.049478 90.2867188,103.257812 C90.4625009,103.342448 90.7229149,103.459635 91.0679688,103.609375 C91.8882854,103.947918 92.4253894,104.26367 92.6792969,104.556641 C92.8615895,104.758465 92.9983068,104.992837 93.0894531,105.259766 C93.1805994,105.526694 93.2261719,105.81966 93.2261719,106.138672 C93.2261719,106.848311 92.996682,107.452146 92.5376953,107.950195 C92.0787086,108.448245 91.3121147,108.925128 90.2378906,109.380859 C89.5217412,109.367838 88.9211613,109.177411 88.4361328,108.80957 C87.9511043,108.44173 87.6141937,107.919274 87.4253906,107.242188 Z M100.297266,107.662109 L100.433984,107.896484 C99.8285126,108.41732 99.2962914,108.794921 98.8373047,109.029297 C98.378318,109.263673 97.9437521,109.380859 97.5335937,109.380859 C96.9736951,109.380859 96.5879568,109.214845 96.3763672,108.882812 C96.1647776,108.55078 96.0589844,107.717455 96.0589844,106.382812 C96.0589844,105.894529 96.0622396,105.223963 96.06875,104.371094 C96.0752604,103.518225 96.0785156,102.906252 96.0785156,102.535156 C96.0785156,102.020831 96.076888,101.635092 96.0736328,101.37793 C96.0703776,101.120767 96.0622396,100.881512 96.0492187,100.660156 L94.7601562,100.660156 L95.7171875,99.78125 L96.0785156,99.78125 L96.0785156,98.0625 L97.9730469,97.4179688 L97.9730469,99.78125 L100.414453,99.78125 L99.4183594,100.660156 L97.9925781,100.660156 C97.9860677,101.220055 97.9811849,101.762042 97.9779297,102.286133 C97.9746745,102.810224 97.9730469,103.355466 97.9730469,103.921875 L97.9730469,104.839844 C97.9730469,106.207038 98.0544263,107.061522 98.2171875,107.40332 C98.3799487,107.745119 98.6859353,107.916016 99.1351562,107.916016 C99.3304697,107.916016 99.5241527,107.894857 99.7162109,107.852539 C99.9082692,107.810221 100.101952,107.746745 100.297266,107.662109 Z M103.520703,103.443359 L107.046094,103.443359 L107.046094,103.335938 C107.046094,102.528642 106.850783,101.884117 106.460156,101.402344 C106.069529,100.920571 105.551956,100.679688 104.907422,100.679688 C104.783723,100.679688 104.666537,100.689453 104.555859,100.708984 C104.445182,100.728516 104.334506,100.757812 104.223828,100.796875 C103.989452,101.122397 103.813672,101.506508 103.696484,101.949219 C103.579296,102.391929 103.520703,102.889971 103.520703,103.443359 Z M108.940625,107.603516 L109.057812,107.847656 C108.960156,107.90625 108.820183,107.997395 108.637891,108.121094 C107.361843,108.960942 106.450393,109.380859 105.903516,109.380859 C104.646999,109.380859 103.646032,108.970707 102.900586,108.150391 C102.15514,107.330074 101.782422,106.226569 101.782422,104.839844 C101.782422,103.960933 101.909374,103.155277 102.163281,102.422852 C102.417189,101.690426 102.736196,101.16797 103.120312,100.855469 C103.680211,100.419269 104.243357,100.070965 104.809766,99.8105469 C105.376175,99.5501289 105.848175,99.4199219 106.225781,99.4199219 C107.039587,99.4199219 107.708526,99.7633429 108.232617,100.450195 C108.756708,101.137048 109.01875,102.027338 109.01875,103.121094 L109.01875,103.384766 L107.085156,104.322266 L103.559766,104.322266 C103.670443,105.461594 104.06432,106.34863 104.741406,106.983398 C105.418493,107.618167 106.307156,107.935547 107.407422,107.935547 C107.680861,107.935547 107.946158,107.907878 108.20332,107.852539 C108.460483,107.7972 108.706249,107.714193 108.940625,107.603516 Z M110.796875,109.097656 C110.809896,108.505205 110.819661,107.880212 110.826172,107.222656 C110.832682,106.565101 110.835938,105.637376 110.835938,104.439453 C110.835938,103.24153 110.832682,102.313805 110.826172,101.65625 C110.819661,100.998695 110.809896,100.373701 110.796875,99.78125 L112.798828,99.703125 C112.798828,99.9505221 112.795573,100.215819 112.789062,100.499023 C112.782552,100.782228 112.779297,100.943359 112.779297,100.982422 C113.222007,100.650389 113.650063,100.359051 114.063477,100.108398 C114.47689,99.8577461 114.882159,99.641277 115.279297,99.4589844 C115.292318,99.4589844 115.311849,99.4557292 115.337891,99.4492188 C115.539715,99.4296874 115.686197,99.4199219 115.777344,99.4199219 C116.16146,99.4199219 116.524412,99.4931633 116.866211,99.6396484 C117.20801,99.7861335 117.525389,100.005858 117.818359,100.298828 C118.013673,100.494142 118.152018,100.7513 118.233398,101.070312 C118.314779,101.389325 118.355469,101.95247 118.355469,102.759766 L118.355469,103.023438 C118.355469,103.459638 118.352214,103.897459 118.345703,104.336914 L118.335938,104.996094 C118.335938,105.354168 118.34082,105.863603 118.350586,106.524414 C118.360352,107.185225 118.375,108.007157 118.394531,108.990234 L116.402344,109.097656 C116.415365,108.622393 116.42513,108.054365 116.431641,107.393555 C116.438151,106.732744 116.441406,105.601571 116.441406,104 C116.441406,103.13411 116.41211,102.546551 116.353516,102.237305 C116.294922,101.928058 116.197266,101.701824 116.060547,101.558594 C115.878254,101.369791 115.637371,101.220053 115.337891,101.109375 C115.03841,100.998697 114.719403,100.943359 114.380859,100.943359 C114.022785,100.943359 113.772136,100.969401 113.628906,101.021484 C113.485676,101.073568 113.375,101.167968 113.296875,101.304688 C113.095051,101.656252 112.951823,102.107094 112.867188,102.657227 C112.782552,103.20736 112.740234,104.234367 112.740234,105.738281 C112.740234,106.167971 112.745117,106.656247 112.754883,107.203125 C112.764648,107.750003 112.779297,108.348955 112.798828,109 L110.796875,109.097656 Z M131.394141,107.662109 L131.530859,107.896484 C130.925388,108.41732 130.393166,108.794921 129.93418,109.029297 C129.475193,109.263673 129.040627,109.380859 128.630469,109.380859 C128.07057,109.380859 127.684832,109.214845 127.473242,108.882812 C127.261653,108.55078 127.155859,107.717455 127.155859,106.382812 C127.155859,105.894529 127.159115,105.223963 127.165625,104.371094 C127.172135,103.518225 127.175391,102.906252 127.175391,102.535156 C127.175391,102.020831 127.173763,101.635092 127.170508,101.37793 C127.167253,101.120767 127.159115,100.881512 127.146094,100.660156 L125.857031,100.660156 L126.814063,99.78125 L127.175391,99.78125 L127.175391,98.0625 L129.069922,97.4179688 L129.069922,99.78125 L131.511328,99.78125 L130.515234,100.660156 L129.089453,100.660156 C129.082943,101.220055 129.07806,101.762042 129.074805,102.286133 C129.071549,102.810224 129.069922,103.355466 129.069922,103.921875 L129.069922,104.839844 C129.069922,106.207038 129.151301,107.061522 129.314063,107.40332 C129.476824,107.745119 129.78281,107.916016 130.232031,107.916016 C130.427345,107.916016 130.621028,107.894857 130.813086,107.852539 C131.005144,107.810221 131.198827,107.746745 131.394141,107.662109 Z M139.021875,107.515625 C139.191147,107.203123 139.319726,106.804364 139.407617,106.319336 C139.495508,105.834307 139.539453,105.289066 139.539453,104.683594 C139.539453,103.492182 139.287177,102.549808 138.782617,101.856445 C138.278057,101.163082 137.596098,100.816406 136.736719,100.816406 C136.528384,100.816406 136.320053,100.837565 136.111719,100.879883 C135.903384,100.922201 135.691798,100.982421 135.476953,101.060547 C135.223046,101.307944 135.026107,101.683917 134.886133,102.188477 C134.746158,102.693036 134.676172,103.290361 134.676172,103.980469 C134.676172,105.197923 134.959372,106.135413 135.525781,106.792969 C136.09219,107.450524 136.896219,107.779297 137.937891,107.779297 C138.152735,107.779297 138.346418,107.758138 138.518945,107.71582 C138.691472,107.673502 138.859114,107.606771 139.021875,107.515625 Z M140.359766,107.183594 L138.084375,109.019531 C137.928124,109.136719 137.737696,109.226237 137.513086,109.288086 C137.288475,109.349935 137.029689,109.380859 136.736719,109.380859 C135.577859,109.380859 134.645251,108.998376 133.938867,108.233398 C133.232483,107.468421 132.879297,106.457689 132.879297,105.201172 C132.879297,104.641273 132.957421,104.06348 133.113672,103.467773 C133.269923,102.872067 133.497785,102.268232 133.797266,101.65625 L136.277734,99.703125 C136.36237,99.6315101 136.539777,99.5664065 136.809961,99.5078125 C137.080145,99.4492185 137.371483,99.4199219 137.683984,99.4199219 C138.842844,99.4199219 139.744528,99.7698533 140.389063,100.469727 C141.033597,101.1696 141.355859,102.14778 141.355859,103.404297 C141.355859,104.016279 141.271225,104.644528 141.101953,105.289062 C140.932681,105.933597 140.685288,106.565101 140.359766,107.183594 Z M148.925781,109.097656 C149.127605,107.867181 149.339192,106.171235 149.560547,104.009766 C149.781902,101.848296 150.035806,99.0000177 150.322266,95.4648438 L150.146484,94.9179688 L152.402344,94.8398438 L156.025391,106.138672 C157.184251,103.182928 158.084307,100.826181 158.725586,99.0683594 C159.366865,97.3105381 159.833983,95.9270884 160.126953,94.9179688 L162.480469,94.8398438 L162.480469,95.8847656 C162.480469,97.6165451 162.530924,99.5973196 162.631836,101.827148 C162.732748,104.056977 162.877603,106.447904 163.066406,109 L160.791016,109.097656 C160.758463,107.105459 160.703125,105.171884 160.625,103.296875 C160.546875,101.421866 160.445964,99.6152431 160.322266,97.8769531 C159.567054,99.7519625 158.842777,101.615551 158.149414,103.467773 C157.456051,105.319996 156.793623,107.164053 156.162109,109 L154.667969,109.097656 C154.40104,108.036453 153.958336,106.508148 153.339844,104.512695 C152.721351,102.517243 152.001957,100.305351 151.181641,97.8769531 C150.940754,100.630873 150.745443,102.930655 150.595703,104.776367 C150.445963,106.62208 150.341797,108.029943 150.283203,109 L148.925781,109.097656 Z M170.655078,107.515625 L170.655078,104.800781 C170.257941,104.651041 169.88034,104.540365 169.522266,104.46875 C169.164191,104.397135 168.828908,104.361328 168.516406,104.361328 C168.288541,104.361328 168.083464,104.377604 167.901172,104.410156 C167.718879,104.442708 167.5431,104.491536 167.373828,104.556641 C167.282682,104.712891 167.214323,104.87565 167.16875,105.044922 C167.123177,105.214194 167.100391,105.399739 167.100391,105.601562 C167.100391,106.239587 167.305467,106.765297 167.715625,107.178711 C168.125783,107.592124 168.653122,107.798828 169.297656,107.798828 C169.486459,107.798828 169.689908,107.776042 169.908008,107.730469 C170.126108,107.684896 170.375129,107.613282 170.655078,107.515625 Z M170.596484,109.097656 L170.655078,107.984375 C170.407681,108.114584 170.075653,108.290363 169.658984,108.511719 C168.57825,109.091149 167.976042,109.380859 167.852344,109.380859 C167.207809,109.380859 166.630016,109.1237 166.118945,108.609375 C165.607875,108.09505 165.352344,107.486332 165.352344,106.783203 C165.352344,105.819657 165.749475,105.025394 166.54375,104.400391 C167.338025,103.775387 168.356895,103.462891 169.600391,103.462891 C169.776173,103.462891 169.950325,103.472656 170.122852,103.492188 C170.295378,103.511719 170.472786,103.541015 170.655078,103.580078 C170.655078,103.508463 170.658333,103.412435 170.664844,103.291992 C170.671354,103.171549 170.674609,103.082032 170.674609,103.023438 C170.674609,102.255204 170.490692,101.701825 170.122852,101.363281 C169.755011,101.024738 169.151176,100.855469 168.311328,100.855469 C167.836065,100.855469 167.393361,100.925455 166.983203,101.06543 C166.573045,101.205404 166.1987,101.415363 165.860156,101.695312 L165.616016,101.480469 L167.393359,99.6152344 C167.718882,99.5501299 168.023241,99.5013022 168.306445,99.46875 C168.58965,99.4361978 168.858202,99.4199219 169.112109,99.4199219 C170.290501,99.4199219 171.166143,99.6917291 171.739063,100.235352 C172.311982,100.778974 172.598438,101.607416 172.598438,102.720703 C172.598438,102.792318 172.580534,103.524733 172.544727,104.917969 C172.508919,106.311205 172.491016,107.671868 172.491016,109 L170.596484,109.097656 Z M174.825781,109.097656 C174.838802,108.505205 174.848568,107.880212 174.855078,107.222656 C174.861589,106.565101 174.864844,105.637376 174.864844,104.439453 C174.864844,103.24153 174.861589,102.313805 174.855078,101.65625 C174.848568,100.998695 174.838802,100.373701 174.825781,99.78125 L176.827734,99.703125 C176.827734,99.9505221 176.824479,100.215819 176.817969,100.499023 C176.811458,100.782228 176.808203,100.943359 176.808203,100.982422 C177.250914,100.650389 177.678969,100.359051 178.092383,100.108398 C178.505796,99.8577461 178.911066,99.641277 179.308203,99.4589844 C179.321224,99.4589844 179.340755,99.4557292 179.366797,99.4492188 C179.568621,99.4296874 179.715104,99.4199219 179.80625,99.4199219 C180.190367,99.4199219 180.553319,99.4931633 180.895117,99.6396484 C181.236916,99.7861335 181.554295,100.005858 181.847266,100.298828 C182.042579,100.494142 182.180924,100.7513 182.262305,101.070312 C182.343685,101.389325 182.384375,101.95247 182.384375,102.759766 L182.384375,103.023438 C182.384375,103.459638 182.38112,103.897459 182.374609,104.336914 L182.364844,104.996094 C182.364844,105.354168 182.369727,105.863603 182.379492,106.524414 C182.389258,107.185225 182.403906,108.007157 182.423438,108.990234 L180.43125,109.097656 C180.444271,108.622393 180.454036,108.054365 180.460547,107.393555 C180.467057,106.732744 180.470313,105.601571 180.470313,104 C180.470313,103.13411 180.441016,102.546551 180.382422,102.237305 C180.323828,101.928058 180.226173,101.701824 180.089453,101.558594 C179.907161,101.369791 179.666278,101.220053 179.366797,101.109375 C179.067316,100.998697 178.748309,100.943359 178.409766,100.943359 C178.051691,100.943359 177.801042,100.969401 177.657813,101.021484 C177.514583,101.073568 177.403907,101.167968 177.325781,101.304688 C177.123957,101.656252 176.98073,102.107094 176.896094,102.657227 C176.811458,103.20736 176.769141,104.234367 176.769141,105.738281 C176.769141,106.167971 176.774023,106.656247 176.783789,107.203125 C176.793555,107.750003 176.808203,108.348955 176.827734,109 L174.825781,109.097656 Z M192.228906,99.703125 C192.209375,100.490889 192.194727,101.267249 192.184961,102.032227 C192.175195,102.797204 192.170313,103.567053 192.170313,104.341797 C192.170313,105.11654 192.175195,105.8929 192.184961,106.670898 C192.194727,107.448897 192.209375,108.222001 192.228906,108.990234 L190.236719,109.097656 C190.236719,108.889322 190.238346,108.677735 190.241602,108.462891 C190.244857,108.248046 190.24974,108.026694 190.25625,107.798828 C189.787498,108.137371 189.344794,108.433592 188.928125,108.6875 C188.511456,108.941408 188.11107,109.152994 187.726953,109.322266 C187.668359,109.328776 187.609766,109.333659 187.551172,109.336914 C187.492578,109.340169 187.404688,109.341797 187.2875,109.341797 C186.389058,109.341797 185.728257,109.099286 185.305078,108.614258 C184.881899,108.129229 184.670313,107.372401 184.670313,106.34375 L184.670313,103.804688 C184.670313,102.997392 184.667057,102.282881 184.660547,101.661133 C184.654036,101.039385 184.644271,100.412764 184.63125,99.78125 L186.633203,99.703125 C186.613672,100.328128 186.599023,101.067053 186.589258,101.919922 C186.579492,102.772791 186.574609,103.739578 186.574609,104.820312 C186.574609,105.621098 186.602278,106.184243 186.657617,106.509766 C186.712956,106.835288 186.812239,107.072916 186.955469,107.222656 C187.150782,107.41797 187.399803,107.572591 187.702539,107.686523 C188.005275,107.800456 188.322655,107.857422 188.654688,107.857422 C188.98672,107.857422 189.225976,107.829753 189.372461,107.774414 C189.518946,107.719075 189.63125,107.619792 189.709375,107.476562 C189.92422,107.111977 190.075585,106.641604 190.163477,106.06543 C190.251368,105.489255 190.295313,104.481778 190.295313,103.042969 C190.295313,102.574216 190.29043,102.069664 190.280664,101.529297 C190.270898,100.98893 190.25625,100.406253 190.236719,99.78125 L192.228906,99.703125 Z M195.755078,103.443359 L199.280469,103.443359 L199.280469,103.335938 C199.280469,102.528642 199.085158,101.884117 198.694531,101.402344 C198.303904,100.920571 197.786331,100.679688 197.141797,100.679688 C197.018098,100.679688 196.900912,100.689453 196.790234,100.708984 C196.679557,100.728516 196.568881,100.757812 196.458203,100.796875 C196.223827,101.122397 196.048047,101.506508 195.930859,101.949219 C195.813671,102.391929 195.755078,102.889971 195.755078,103.443359 Z M201.175,107.603516 L201.292188,107.847656 C201.194531,107.90625 201.054558,107.997395 200.872266,108.121094 C199.596218,108.960942 198.684768,109.380859 198.137891,109.380859 C196.881374,109.380859 195.880407,108.970707 195.134961,108.150391 C194.389515,107.330074 194.016797,106.226569 194.016797,104.839844 C194.016797,103.960933 194.143749,103.155277 194.397656,102.422852 C194.651564,101.690426 194.970571,101.16797 195.354688,100.855469 C195.914586,100.419269 196.477732,100.070965 197.044141,99.8105469 C197.61055,99.5501289 198.08255,99.4199219 198.460156,99.4199219 C199.273962,99.4199219 199.942901,99.7633429 200.466992,100.450195 C200.991083,101.137048 201.253125,102.027338 201.253125,103.121094 L201.253125,103.384766 L199.319531,104.322266 L195.794141,104.322266 C195.904818,105.461594 196.298695,106.34863 196.975781,106.983398 C197.652868,107.618167 198.541531,107.935547 199.641797,107.935547 C199.915236,107.935547 200.180533,107.907878 200.437695,107.852539 C200.694858,107.7972 200.940624,107.714193 201.175,107.603516 Z M203.128906,109.097656 C203.148438,108.401038 203.159831,107.585617 203.163086,106.651367 C203.166341,105.717118 203.167969,104.166026 203.167969,101.998047 C203.167969,99.8365777 203.166341,98.2919968 203.163086,97.3642578 C203.159831,96.4365188 203.148438,95.6210973 203.128906,94.9179688 L205.150391,94.8398438 C205.13737,95.582035 205.127604,96.4234979 205.121094,97.3642578 C205.114583,98.3050177 205.111328,99.8235572 205.111328,101.919922 C205.111328,104.016287 205.114583,105.534826 205.121094,106.475586 C205.127604,107.416346 205.13737,108.257809 205.150391,109 L203.128906,109.097656 Z M220.376563,107.535156 C221.040628,107.535156 221.628188,107.444011 222.139258,107.261719 C222.650328,107.079426 222.990494,106.845054 223.159766,106.558594 C223.439715,106.076821 223.652929,105.525068 223.799414,104.90332 C223.945899,104.281572 224.019141,103.625654 224.019141,102.935547 C224.019141,100.962881 223.529237,99.3808653 222.549414,98.1894531 C221.569591,96.9980409 220.272404,96.4023438 218.657813,96.4023438 C218.013278,96.4023438 217.430602,96.4934887 216.909766,96.6757812 C216.38893,96.8580738 216.037371,97.0859361 215.855078,97.359375 C215.536066,97.8411482 215.280535,98.4531213 215.088477,99.1953125 C214.896418,99.9375037 214.800391,100.692704 214.800391,101.460938 C214.800391,103.205738 215.329357,104.654291 216.387305,105.806641 C217.445253,106.95899 218.761971,107.535156 220.3375,107.535156 L220.376563,107.535156 Z M218.941016,109.380859 C217.215747,109.380859 215.803,108.772142 214.702734,107.554688 C213.602468,106.337233 213.052344,104.764984 213.052344,102.837891 C213.052344,101.418613 213.31113,100.181646 213.828711,99.1269531 C214.346292,98.0722604 215.194265,97.0566455 216.372656,96.0800781 C217.00417,95.5657526 217.624281,95.1832695 218.233008,94.9326172 C218.841735,94.6819649 219.455335,94.5566406 220.073828,94.5566406 C220.718363,94.5566406 221.341729,94.6624338 221.943945,94.8740234 C222.546162,95.085613 223.078383,95.3867168 223.540625,95.7773438 C224.328389,96.4544305 224.930597,97.2779899 225.347266,98.2480469 C225.763934,99.2181038 225.972266,100.276036 225.972266,101.421875 C225.972266,102.50912 225.76719,103.532873 225.357031,104.493164 C224.946873,105.453455 224.354431,106.294918 223.579688,107.017578 C222.674735,107.863937 221.860941,108.469399 221.138281,108.833984 C220.415621,109.19857 219.683207,109.380859 218.941016,109.380859 Z M227.984766,109.097656 C227.997787,108.251298 228.00918,107.439131 228.018945,106.661133 C228.028711,105.883134 228.033594,105.142582 228.033594,104.439453 C228.033594,103.736325 228.028711,102.995772 228.018945,102.217773 C228.00918,101.439775 227.997787,100.627608 227.984766,99.78125 L230.016016,99.703125 L229.957422,101.021484 C230.445706,100.513669 230.888409,100.119793 231.285547,99.8398438 C231.682684,99.5598944 231.991926,99.4199219 232.213281,99.4199219 C232.421616,99.4199219 232.649478,99.5598944 232.896875,99.8398438 C233.144272,100.119793 233.385155,100.513669 233.619531,101.021484 L231.861719,102.261719 C231.711978,101.897134 231.539454,101.59603 231.344141,101.358398 C231.148827,101.120767 230.986068,101.001953 230.855859,101.001953 C230.614973,101.001953 230.408269,101.338864 230.235742,102.012695 C230.063215,102.686527 229.976953,103.547521 229.976953,104.595703 C229.976953,105.7155 229.980208,106.58626 229.986719,107.208008 C229.993229,107.829756 230.002995,108.42708 230.016016,109 L227.984766,109.097656 Z M239.616406,107.662109 L239.753125,107.896484 C239.147653,108.41732 238.615432,108.794921 238.156445,109.029297 C237.697459,109.263673 237.262893,109.380859 236.852734,109.380859 C236.292836,109.380859 235.907097,109.214845 235.695508,108.882812 C235.483918,108.55078 235.378125,107.717455 235.378125,106.382812 C235.378125,105.894529 235.38138,105.223963 235.387891,104.371094 C235.394401,103.518225 235.397656,102.906252 235.397656,102.535156 C235.397656,102.020831 235.396029,101.635092 235.392773,101.37793 C235.389518,101.120767 235.38138,100.881512 235.368359,100.660156 L234.079297,100.660156 L235.036328,99.78125 L235.397656,99.78125 L235.397656,98.0625 L237.292187,97.4179688 L237.292187,99.78125 L239.733594,99.78125 L238.7375,100.660156 L237.311719,100.660156 C237.305208,101.220055 237.300326,101.762042 237.29707,102.286133 C237.293815,102.810224 237.292187,103.355466 237.292187,103.921875 L237.292187,104.839844 C237.292187,106.207038 237.373567,107.061522 237.536328,107.40332 C237.699089,107.745119 238.005076,107.916016 238.454297,107.916016 C238.64961,107.916016 238.843293,107.894857 239.035352,107.852539 C239.22741,107.810221 239.421093,107.746745 239.616406,107.662109 Z M243.640625,99.703125 C243.627604,100.243492 243.617839,100.831052 243.611328,101.46582 C243.604818,102.100589 243.601562,103.059238 243.601562,104.341797 C243.601562,105.624355 243.604818,106.584632 243.611328,107.222656 C243.617839,107.86068 243.627604,108.453122 243.640625,109 L241.619141,109.097656 C241.632162,108.505205 241.641927,107.880212 241.648437,107.222656 C241.654948,106.565101 241.658203,105.637376 241.658203,104.439453 C241.658203,103.24153 241.654948,102.313805 241.648437,101.65625 C241.641927,100.998695 241.632162,100.373701 241.619141,99.78125 L243.640625,99.703125 Z M243.347656,94.9179688 L245.085937,94.9179688 L242.341797,98.3359375 L241.306641,98.3359375 L243.347656,94.9179688 Z M245.399219,109.097656 L250.633594,101.197266 L246.160937,101.197266 L246.678516,99.703125 L252.694141,99.703125 L247.518359,107.515625 L249.500781,107.515625 C250.464328,107.515625 251.170701,107.509115 251.619922,107.496094 C252.069143,107.483073 252.472785,107.457031 252.830859,107.417969 L252.371875,109.097656 C251.935675,109.065104 251.496226,109.04069 251.053516,109.024414 C250.610805,109.008138 250.158336,109 249.696094,109 C249.05807,109 248.385876,109.008138 247.679492,109.024414 C246.973108,109.04069 246.213025,109.065104 245.399219,109.097656 Z M271.221094,107.222656 C269.997129,108.042973 269.030342,108.607746 268.320703,108.916992 C267.611064,109.226239 266.963284,109.380859 266.377344,109.380859 C264.534887,109.380859 263.050526,108.772142 261.924219,107.554688 C260.797911,106.337233 260.234766,104.725921 260.234766,102.720703 C260.234766,101.275383 260.526104,100.012375 261.108789,98.9316406 C261.691474,97.8509061 262.594786,96.9003947 263.81875,96.0800781 C264.697661,95.4811168 265.404034,95.077475 265.937891,94.8691406 C266.471747,94.6608063 266.999086,94.5566406 267.519922,94.5566406 C268.242582,94.5566406 268.919658,94.665689 269.551172,94.8837891 C270.182685,95.1018891 270.784893,95.4355446 271.357812,95.8847656 L270.000391,97.515625 C269.479555,97.1119771 268.911527,96.812501 268.296289,96.6171875 C267.681052,96.421874 267.008858,96.3242188 266.279687,96.3242188 C265.687237,96.3242188 265.143622,96.3811843 264.648828,96.4951172 C264.154034,96.60905 263.80573,96.7506502 263.603906,96.9199219 C263.070049,97.3431011 262.648504,97.9534465 262.339258,98.7509766 C262.030011,99.5485066 261.875391,100.425776 261.875391,101.382812 C261.875391,102.378911 262.069074,103.300126 262.456445,104.146484 C262.843817,104.992843 263.398825,105.712237 264.121484,106.304688 C264.64232,106.734377 265.247783,107.071288 265.937891,107.31543 C266.627998,107.559572 267.321351,107.681641 268.017969,107.681641 C268.213282,107.681641 268.40371,107.665365 268.589258,107.632812 C268.774806,107.60026 268.945702,107.554688 269.101953,107.496094 C269.134505,106.740882 269.158919,106.036136 269.175195,105.381836 C269.191471,104.727536 269.199609,104.107425 269.199609,103.521484 L269.199609,102.701172 L266.074609,102.701172 L267.392969,101.324219 C267.835679,101.33724 268.335349,101.35026 268.891992,101.363281 C269.448636,101.376302 270.224995,101.389323 271.221094,101.402344 L271.221094,107.222656 Z M279.288281,107.515625 C279.457553,107.203123 279.586132,106.804364 279.674023,106.319336 C279.761915,105.834307 279.805859,105.289066 279.805859,104.683594 C279.805859,103.492182 279.553583,102.549808 279.049023,101.856445 C278.544464,101.163082 277.862504,100.816406 277.003125,100.816406 C276.794791,100.816406 276.586459,100.837565 276.378125,100.879883 C276.169791,100.922201 275.958204,100.982421 275.743359,101.060547 C275.489452,101.307944 275.292514,101.683917 275.152539,102.188477 C275.012564,102.693036 274.942578,103.290361 274.942578,103.980469 C274.942578,105.197923 275.225778,106.135413 275.792187,106.792969 C276.358597,107.450524 277.162625,107.779297 278.204297,107.779297 C278.419142,107.779297 278.612825,107.758138 278.785352,107.71582 C278.957878,107.673502 279.12552,107.606771 279.288281,107.515625 Z M280.626172,107.183594 L278.350781,109.019531 C278.19453,109.136719 278.004103,109.226237 277.779492,109.288086 C277.554882,109.349935 277.296095,109.380859 277.003125,109.380859 C275.844265,109.380859 274.911657,108.998376 274.205273,108.233398 C273.49889,107.468421 273.145703,106.457689 273.145703,105.201172 C273.145703,104.641273 273.223827,104.06348 273.380078,103.467773 C273.536329,102.872067 273.764191,102.268232 274.063672,101.65625 L276.544141,99.703125 C276.628776,99.6315101 276.806184,99.5664065 277.076367,99.5078125 C277.346551,99.4492185 277.637889,99.4199219 277.950391,99.4199219 C279.109251,99.4199219 280.010934,99.7698533 280.655469,100.469727 C281.300003,101.1696 281.622266,102.14778 281.622266,103.404297 C281.622266,104.016279 281.537631,104.644528 281.368359,105.289062 C281.199088,105.933597 280.951694,106.565101 280.626172,107.183594 Z M278.4875,94.9179688 L280.225781,94.9179688 L277.481641,98.3359375 L276.446484,98.3359375 L278.4875,94.9179688 Z M283.419922,109.097656 C283.432943,108.505205 283.442708,107.880212 283.449219,107.222656 C283.455729,106.565101 283.458984,105.637376 283.458984,104.439453 C283.458984,103.24153 283.455729,102.313805 283.449219,101.65625 C283.442708,100.998695 283.432943,100.373701 283.419922,99.78125 L285.421875,99.703125 C285.421875,99.9505221 285.41862,100.215819 285.412109,100.499023 C285.405599,100.782228 285.402344,100.943359 285.402344,100.982422 C285.688804,100.780598 286.068031,100.521811 286.540039,100.206055 C287.012047,99.8902979 287.339192,99.6673184 287.521484,99.5371094 C287.638672,99.4980467 287.755859,99.4687501 287.873047,99.4492188 C287.990235,99.4296874 288.107421,99.4199219 288.224609,99.4199219 C288.686851,99.4199219 289.092121,99.5533841 289.44043,99.8203125 C289.788739,100.087241 290.054036,100.474607 290.236328,100.982422 C290.718101,100.598305 291.115233,100.290691 291.427734,100.05957 C291.740236,99.8284494 291.997395,99.6477871 292.199219,99.5175781 C292.264323,99.4850259 292.332682,99.4606121 292.404297,99.4443359 C292.475912,99.4280598 292.560546,99.4199219 292.658203,99.4199219 C293.393884,99.4199219 293.991209,99.5908186 294.450195,99.9326172 C294.909182,100.274416 295.171224,100.741533 295.236328,101.333984 C295.26237,101.509767 295.280273,101.755532 295.290039,102.071289 C295.299805,102.387046 295.304687,103.010412 295.304687,103.941406 L295.304687,104.761719 C295.304687,105.783859 295.307943,106.599281 295.314453,107.208008 C295.320964,107.816735 295.330729,108.41406 295.34375,109 L293.361328,109.097656 C293.380859,107.899734 293.395508,106.875981 293.405273,106.026367 C293.415039,105.176754 293.419922,104.501305 293.419922,104 C293.419922,102.782546 293.291342,101.958987 293.03418,101.529297 C292.777017,101.099607 292.319665,100.884766 291.662109,100.884766 C291.440754,100.884766 291.269857,100.901042 291.149414,100.933594 C291.028971,100.966146 290.945964,101.021484 290.900391,101.099609 C290.718098,101.39909 290.583008,101.812497 290.495117,102.339844 C290.407226,102.86719 290.363281,103.534501 290.363281,104.341797 C290.363281,105.083988 290.368164,105.844072 290.37793,106.62207 C290.387695,107.400069 290.402344,108.192704 290.421875,109 L288.419922,109.097656 C288.439453,108.342444 288.454102,107.631188 288.463867,106.963867 C288.473633,106.296546 288.478516,105.676435 288.478516,105.103516 C288.478516,103.248038 288.359702,102.087567 288.12207,101.62207 C287.884439,101.156573 287.449873,100.923828 286.818359,100.923828 C286.258461,100.923828 285.875978,101.224932 285.670898,101.827148 C285.465819,102.429365 285.363281,103.928373 285.363281,106.324219 C285.363281,106.656252 285.368164,107.046873 285.37793,107.496094 C285.387695,107.945315 285.402344,108.446612 285.421875,109 L283.419922,109.097656 Z M298.889453,103.443359 L302.414844,103.443359 L302.414844,103.335938 C302.414844,102.528642 302.219533,101.884117 301.828906,101.402344 C301.438279,100.920571 300.920706,100.679688 300.276172,100.679688 C300.152473,100.679688 300.035287,100.689453 299.924609,100.708984 C299.813932,100.728516 299.703256,100.757812 299.592578,100.796875 C299.358202,101.122397 299.182422,101.506508 299.065234,101.949219 C298.948046,102.391929 298.889453,102.889971 298.889453,103.443359 Z M304.309375,107.603516 L304.426562,107.847656 C304.328906,107.90625 304.188933,107.997395 304.006641,108.121094 C302.730593,108.960942 301.819143,109.380859 301.272266,109.380859 C300.015749,109.380859 299.014782,108.970707 298.269336,108.150391 C297.52389,107.330074 297.151172,106.226569 297.151172,104.839844 C297.151172,103.960933 297.278124,103.155277 297.532031,102.422852 C297.785939,101.690426 298.104946,101.16797 298.489062,100.855469 C299.048961,100.419269 299.612107,100.070965 300.178516,99.8105469 C300.744925,99.5501289 301.216925,99.4199219 301.594531,99.4199219 C302.408337,99.4199219 303.077276,99.7633429 303.601367,100.450195 C304.125458,101.137048 304.3875,102.027338 304.3875,103.121094 L304.3875,103.384766 L302.453906,104.322266 L298.928516,104.322266 C299.039193,105.461594 299.43307,106.34863 300.110156,106.983398 C300.787243,107.618167 301.675906,107.935547 302.776172,107.935547 C303.049611,107.935547 303.314908,107.907878 303.57207,107.852539 C303.829233,107.7972 304.074999,107.714193 304.309375,107.603516 Z M305.608984,109.097656 L310.843359,101.197266 L306.370703,101.197266 L306.888281,99.703125 L312.903906,99.703125 L307.728125,107.515625 L309.710547,107.515625 C310.674093,107.515625 311.380467,107.509115 311.829687,107.496094 C312.278908,107.483073 312.68255,107.457031 313.040625,107.417969 L312.581641,109.097656 C312.145441,109.065104 311.705992,109.04069 311.263281,109.024414 C310.820571,109.008138 310.368101,109 309.905859,109 C309.267835,109 308.595642,109.008138 307.889258,109.024414 C307.182874,109.04069 306.422791,109.065104 305.608984,109.097656 Z M320.805859,109.097656 C320.81888,108.251298 320.830273,107.439131 320.840039,106.661133 C320.849805,105.883134 320.854687,105.142582 320.854687,104.439453 C320.854687,103.736325 320.849805,102.995772 320.840039,102.217773 C320.830273,101.439775 320.81888,100.627608 320.805859,99.78125 L322.837109,99.703125 L322.778516,101.021484 C323.266799,100.513669 323.709503,100.119793 324.106641,99.8398438 C324.503778,99.5598944 324.81302,99.4199219 325.034375,99.4199219 C325.242709,99.4199219 325.470572,99.5598944 325.717969,99.8398438 C325.965366,100.119793 326.206249,100.513669 326.440625,101.021484 L324.682812,102.261719 C324.533072,101.897134 324.360548,101.59603 324.165234,101.358398 C323.969921,101.120767 323.807162,101.001953 323.676953,101.001953 C323.436067,101.001953 323.229363,101.338864 323.056836,102.012695 C322.884309,102.686527 322.798047,103.547521 322.798047,104.595703 C322.798047,105.7155 322.801302,106.58626 322.807812,107.208008 C322.814323,107.829756 322.824088,108.42708 322.837109,109 L320.805859,109.097656 Z M328.833984,103.443359 L332.359375,103.443359 L332.359375,103.335938 C332.359375,102.528642 332.164064,101.884117 331.773437,101.402344 C331.382811,100.920571 330.865238,100.679688 330.220703,100.679688 C330.097005,100.679688 329.979818,100.689453 329.869141,100.708984 C329.758463,100.728516 329.647787,100.757812 329.537109,100.796875 C329.302733,101.122397 329.126954,101.506508 329.009766,101.949219 C328.892578,102.391929 328.833984,102.889971 328.833984,103.443359 Z M334.253906,107.603516 L334.371094,107.847656 C334.273437,107.90625 334.133464,107.997395 333.951172,108.121094 C332.675124,108.960942 331.763675,109.380859 331.216797,109.380859 C329.96028,109.380859 328.959314,108.970707 328.213867,108.150391 C327.468421,107.330074 327.095703,106.226569 327.095703,104.839844 C327.095703,103.960933 327.222655,103.155277 327.476562,102.422852 C327.73047,101.690426 328.049477,101.16797 328.433594,100.855469 C328.993492,100.419269 329.556638,100.070965 330.123047,99.8105469 C330.689456,99.5501289 331.161456,99.4199219 331.539062,99.4199219 C332.352869,99.4199219 333.021807,99.7633429 333.545898,100.450195 C334.06999,101.137048 334.332031,102.027338 334.332031,103.121094 L334.332031,103.384766 L332.398437,104.322266 L328.873047,104.322266 C328.983725,105.461594 329.377601,106.34863 330.054687,106.983398 C330.731774,107.618167 331.620437,107.935547 332.720703,107.935547 C332.994142,107.935547 333.259439,107.907878 333.516602,107.852539 C333.773764,107.7972 334.01953,107.714193 334.253906,107.603516 Z M341.090625,107.515625 L341.090625,104.800781 C340.693488,104.651041 340.315887,104.540365 339.957812,104.46875 C339.599738,104.397135 339.264455,104.361328 338.951953,104.361328 C338.724087,104.361328 338.519011,104.377604 338.336719,104.410156 C338.154426,104.442708 337.978647,104.491536 337.809375,104.556641 C337.718229,104.712891 337.64987,104.87565 337.604297,105.044922 C337.558724,105.214194 337.535937,105.399739 337.535937,105.601562 C337.535937,106.239587 337.741014,106.765297 338.151172,107.178711 C338.56133,107.592124 339.088669,107.798828 339.733203,107.798828 C339.922006,107.798828 340.125455,107.776042 340.343555,107.730469 C340.561655,107.684896 340.810676,107.613282 341.090625,107.515625 Z M341.032031,109.097656 L341.090625,107.984375 C340.843228,108.114584 340.5112,108.290363 340.094531,108.511719 C339.013797,109.091149 338.411589,109.380859 338.287891,109.380859 C337.643356,109.380859 337.065562,109.1237 336.554492,108.609375 C336.043422,108.09505 335.787891,107.486332 335.787891,106.783203 C335.787891,105.819657 336.185022,105.025394 336.979297,104.400391 C337.773572,103.775387 338.792442,103.462891 340.035937,103.462891 C340.21172,103.462891 340.385872,103.472656 340.558398,103.492188 C340.730925,103.511719 340.908332,103.541015 341.090625,103.580078 C341.090625,103.508463 341.09388,103.412435 341.100391,103.291992 C341.106901,103.171549 341.110156,103.082032 341.110156,103.023438 C341.110156,102.255204 340.926239,101.701825 340.558398,101.363281 C340.190558,101.024738 339.586723,100.855469 338.746875,100.855469 C338.271612,100.855469 337.828908,100.925455 337.41875,101.06543 C337.008592,101.205404 336.634246,101.415363 336.295703,101.695312 L336.051562,101.480469 L337.828906,99.6152344 C338.154429,99.5501299 338.458788,99.5013022 338.741992,99.46875 C339.025197,99.4361978 339.293749,99.4199219 339.547656,99.4199219 C340.726048,99.4199219 341.60169,99.6917291 342.174609,100.235352 C342.747529,100.778974 343.033984,101.607416 343.033984,102.720703 C343.033984,102.792318 343.016081,103.524733 342.980273,104.917969 C342.944466,106.311205 342.926562,107.671868 342.926562,109 L341.032031,109.097656 Z M350.046484,107.857422 C350.378517,107.499347 350.614518,107.002933 350.754492,106.368164 C350.894467,105.733395 350.964453,104.65756 350.964453,103.140625 L350.964453,101.402344 C350.502211,101.135415 350.046487,100.938477 349.597266,100.811523 C349.148045,100.68457 348.682554,100.621094 348.200781,100.621094 C348.116145,100.621094 348.029883,100.627604 347.941992,100.640625 C347.854101,100.653646 347.767839,100.673177 347.683203,100.699219 C347.416275,101.252607 347.212826,101.861325 347.072852,102.525391 C346.932877,103.189456 346.862891,103.873043 346.862891,104.576172 C346.862891,105.617844 347.087498,106.443031 347.536719,107.051758 C347.98594,107.660485 348.588147,107.964844 349.343359,107.964844 C349.434506,107.958333 349.535416,107.948568 349.646094,107.935547 C349.756771,107.922526 349.890234,107.896485 350.046484,107.857422 Z M350.905859,109.097656 L350.944922,107.984375 C350.762629,108.082032 350.508726,108.225259 350.183203,108.414062 C349.056895,109.058597 348.389584,109.380859 348.18125,109.380859 C347.933853,109.380859 347.64577,109.315756 347.316992,109.185547 C346.988215,109.055338 346.670835,108.879558 346.364844,108.658203 C345.87005,108.293618 345.492449,107.824873 345.232031,107.251953 C344.971613,106.679034 344.841406,106.027998 344.841406,105.298828 C344.841406,104.432938 345.030206,103.549158 345.407812,102.647461 C345.785419,101.745764 346.224867,101.076825 346.726172,100.640625 C347.103778,100.315103 347.56764,100.030275 348.117773,99.7861328 C348.667906,99.541991 349.089452,99.4199219 349.382422,99.4199219 C349.480079,99.4199219 349.673762,99.4459633 349.963477,99.4980469 C350.253192,99.5501305 350.586847,99.615234 350.964453,99.6933594 C350.951432,98.6451771 350.940039,97.7239623 350.930273,96.9296875 C350.920508,96.1354127 350.91237,95.4648465 350.905859,94.9179688 L352.898047,94.8398438 C352.885026,95.582035 352.87526,96.4234979 352.86875,97.3642578 C352.86224,98.3050177 352.858984,99.8235572 352.858984,101.919922 C352.858984,104.022797 352.86224,105.542964 352.86875,106.480469 C352.87526,107.417973 352.885026,108.257809 352.898047,109 L350.905859,109.097656 Z M356.141016,95.5039062 L357.557031,96.1777344 L356.141016,97.7792969 L354.715234,97.1152344 L356.141016,95.5039062 Z M357.234766,99.703125 C357.221745,100.243492 357.211979,100.831052 357.205469,101.46582 C357.198958,102.100589 357.195703,103.059238 357.195703,104.341797 C357.195703,105.624355 357.198958,106.584632 357.205469,107.222656 C357.211979,107.86068 357.221745,108.453122 357.234766,109 L355.213281,109.097656 C355.226302,108.505205 355.236068,107.880212 355.242578,107.222656 C355.249089,106.565101 355.252344,105.637376 355.252344,104.439453 C355.252344,103.24153 355.249089,102.313805 355.242578,101.65625 C355.236068,100.998695 355.226302,100.373701 355.213281,99.78125 L357.234766,99.703125 Z M359.55,109.097656 C359.563021,108.505205 359.572786,107.880212 359.579297,107.222656 C359.585807,106.565101 359.589062,105.637376 359.589062,104.439453 C359.589062,103.24153 359.585807,102.313805 359.579297,101.65625 C359.572786,100.998695 359.563021,100.373701 359.55,99.78125 L361.551953,99.703125 C361.551953,99.9505221 361.548698,100.215819 361.542187,100.499023 C361.535677,100.782228 361.532422,100.943359 361.532422,100.982422 C361.975132,100.650389 362.403188,100.359051 362.816602,100.108398 C363.230015,99.8577461 363.635284,99.641277 364.032422,99.4589844 C364.045443,99.4589844 364.064974,99.4557292 364.091016,99.4492188 C364.29284,99.4296874 364.439322,99.4199219 364.530469,99.4199219 C364.914585,99.4199219 365.277537,99.4931633 365.619336,99.6396484 C365.961135,99.7861335 366.278514,100.005858 366.571484,100.298828 C366.766798,100.494142 366.905143,100.7513 366.986523,101.070312 C367.067904,101.389325 367.108594,101.95247 367.108594,102.759766 L367.108594,103.023438 C367.108594,103.459638 367.105339,103.897459 367.098828,104.336914 L367.089062,104.996094 C367.089062,105.354168 367.093945,105.863603 367.103711,106.524414 C367.113477,107.185225 367.128125,108.007157 367.147656,108.990234 L365.155469,109.097656 C365.16849,108.622393 365.178255,108.054365 365.184766,107.393555 C365.191276,106.732744 365.194531,105.601571 365.194531,104 C365.194531,103.13411 365.165235,102.546551 365.106641,102.237305 C365.048047,101.928058 364.950391,101.701824 364.813672,101.558594 C364.631379,101.369791 364.390496,101.220053 364.091016,101.109375 C363.791535,100.998697 363.472528,100.943359 363.133984,100.943359 C362.77591,100.943359 362.525261,100.969401 362.382031,101.021484 C362.238801,101.073568 362.128125,101.167968 362.05,101.304688 C361.848176,101.656252 361.704948,102.107094 361.620312,102.657227 C361.535677,103.20736 361.493359,104.234367 361.493359,105.738281 C361.493359,106.167971 361.498242,106.656247 361.508008,107.203125 C361.517773,107.750003 361.532422,108.348955 361.551953,109 L359.55,109.097656 Z M371.738281,109.419922 C371.57552,109.582683 371.451823,109.764973 371.367187,109.966797 C371.282552,110.168621 371.240234,110.380207 371.240234,110.601562 C371.240234,111.135419 371.459959,111.552082 371.899414,111.851562 C372.338869,112.151043 372.95898,112.300781 373.759766,112.300781 C374.124351,112.300781 374.471027,112.255209 374.799805,112.164062 C375.128582,112.072916 375.4069,111.945964 375.634766,111.783203 C375.667318,111.692057 375.691732,111.589519 375.708008,111.475586 C375.724284,111.361653 375.732422,111.223308 375.732422,111.060547 C375.732422,110.396481 375.572918,109.937501 375.253906,109.683594 C374.934894,109.429686 374.329432,109.302734 373.4375,109.302734 C373.177082,109.302734 372.906902,109.3125 372.626953,109.332031 C372.347004,109.351563 372.050783,109.380859 371.738281,109.419922 Z M374.824219,105.416016 C375.006511,105.220702 375.151367,104.966798 375.258789,104.654297 C375.366211,104.341795 375.419922,104.003257 375.419922,103.638672 C375.419922,102.779293 375.174156,102.077802 374.682617,101.53418 C374.191078,100.990557 373.561202,100.71875 372.792969,100.71875 C372.695312,100.71875 372.596029,100.726888 372.495117,100.743164 C372.394205,100.75944 372.285157,100.787109 372.167969,100.826172 C371.933593,101.0931 371.756185,101.395832 371.635742,101.734375 C371.515299,102.072918 371.455078,102.447264 371.455078,102.857422 C371.455078,103.69727 371.666665,104.358071 372.089844,104.839844 C372.513023,105.321617 373.095699,105.5625 373.837891,105.5625 C373.981121,105.5625 374.137369,105.549479 374.306641,105.523438 C374.475912,105.497396 374.648437,105.461589 374.824219,105.416016 Z M371.09375,106.304688 C370.605466,106.024738 370.234376,105.671552 369.980469,105.245117 C369.726561,104.818683 369.599609,104.328779 369.599609,103.775391 C369.599609,103.274086 369.703775,102.79232 369.912109,102.330078 C370.120444,101.867836 370.393879,101.503257 370.732422,101.236328 C371.422529,100.708982 372.023109,100.303712 372.53418,100.020508 C373.04525,99.7373033 373.440754,99.5957031 373.720703,99.5957031 L377.880859,99.5957031 L376.337891,100.660156 C376.62435,100.875001 376.839192,101.146808 376.982422,101.475586 C377.125652,101.804364 377.197266,102.186847 377.197266,102.623047 C377.197266,103.215498 377.05241,103.757485 376.762695,104.249023 C376.47298,104.740562 376.031904,105.197915 375.439453,105.621094 C374.918617,105.992189 374.418948,106.278645 373.94043,106.480469 C373.461912,106.682293 373.046877,106.783203 372.695312,106.783203 C372.51953,106.783203 372.320965,106.755534 372.099609,106.700195 C371.878254,106.644856 371.643881,106.565105 371.396484,106.460938 C371.285807,106.604167 371.204427,106.732747 371.152344,106.84668 C371.10026,106.960613 371.074219,107.072916 371.074219,107.183594 C371.074219,107.463543 371.225584,107.663736 371.52832,107.78418 C371.831056,107.904623 372.366533,107.964844 373.134766,107.964844 C373.33659,107.964844 373.621417,107.953451 373.989258,107.930664 C374.357098,107.907877 374.62565,107.896484 374.794922,107.896484 C375.582686,107.896484 376.196287,108.070636 376.635742,108.418945 C377.075198,108.767254 377.294922,109.247393 377.294922,109.859375 C377.294922,110.308596 377.185873,110.728514 376.967773,111.119141 C376.749673,111.509768 376.399742,111.916665 375.917969,112.339844 C375.390622,112.808596 374.843753,113.155272 374.277344,113.379883 C373.710935,113.604493 373.105472,113.716797 372.460937,113.716797 C371.575516,113.716797 370.849612,113.480797 370.283203,113.008789 C369.716794,112.536781 369.433594,111.939457 369.433594,111.216797 C369.433594,110.943358 369.954422,110.396488 370.996094,109.576172 L371.220703,109.400391 C370.712888,109.400391 370.315757,109.343425 370.029297,109.229492 C369.742837,109.115559 369.599609,108.957683 369.599609,108.755859 C369.599609,108.573567 369.737954,108.248049 370.014648,107.779297 C370.291343,107.310545 370.651039,106.819013 371.09375,106.304688 Z M80.0019531,118.556641 L80.2558594,118.800781 C79.9759101,119.145835 79.7740892,119.446939 79.6503906,119.704102 C79.5266921,119.961264 79.4648438,120.20052 79.4648438,120.421875 C79.4648438,120.682293 79.5527335,120.936197 79.7285156,121.183594 C79.9042978,121.430991 80.2135395,121.717446 80.65625,122.042969 L79.3769531,123.595703 C78.9212217,123.309243 78.5875662,123.01465 78.3759766,122.711914 C78.164387,122.409178 78.0585938,122.078778 78.0585938,121.720703 C78.0585938,121.343097 78.2083318,120.910159 78.5078125,120.421875 C78.8072932,119.933591 79.3053351,119.311853 80.0019531,118.556641 Z M76.4179688,118.556641 L76.7011719,118.800781 C76.4147121,119.145835 76.209636,119.446939 76.0859375,119.704102 C75.962239,119.961264 75.9003906,120.20052 75.9003906,120.421875 C75.9003906,120.695314 75.989908,120.955728 76.1689453,121.203125 C76.3479827,121.450522 76.6523416,121.730467 77.0820312,122.042969 L75.8027344,123.595703 C75.3470029,123.309243 75.0133474,123.01465 74.8017578,122.711914 C74.5901682,122.409178 74.484375,122.078778 74.484375,121.720703 C74.484375,121.343097 74.6324855,120.910159 74.9287109,120.421875 C75.2249364,119.933591 75.7213507,119.311853 76.4179688,118.556641 Z M83.6746094,133 C83.7201825,131.99088 83.7543619,130.906907 83.7771484,129.748047 C83.799935,128.589187 83.8113281,127.339199 83.8113281,125.998047 C83.8113281,124.663405 83.799935,123.410162 83.7771484,122.238281 C83.7543619,121.0664 83.7201825,119.959641 83.6746094,118.917969 L86.1257813,118.839844 C86.0867186,119.901047 86.0557944,121.015945 86.0330078,122.18457 C86.0102212,123.353196 85.9988281,124.598301 85.9988281,125.919922 C85.9988281,126.903 86.0183592,128.572905 86.0574219,130.929688 C86.0639323,131.2487 86.0704427,131.492838 86.0769531,131.662109 L87.2976563,131.662109 C88.104952,131.662109 88.799932,131.653971 89.3826172,131.637695 C89.9653024,131.621419 90.4942685,131.597005 90.9695313,131.564453 C90.8718745,131.766277 90.7758468,131.986001 90.6814453,132.223633 C90.5870438,132.461264 90.4845058,132.752602 90.3738281,133.097656 C89.7553354,133.065104 89.2100935,133.04069 88.7380859,133.024414 C88.2660784,133.008138 87.8445331,133 87.4734375,133 L83.6746094,133 Z M97.5816406,131.515625 L97.5816406,128.800781 C97.1845032,128.651041 96.8069028,128.540365 96.4488281,128.46875 C96.0907534,128.397135 95.7554703,128.361328 95.4429688,128.361328 C95.215103,128.361328 95.010027,128.377604 94.8277344,128.410156 C94.6454418,128.442708 94.4696623,128.491536 94.3003906,128.556641 C94.2092443,128.712891 94.1408856,128.87565 94.0953125,129.044922 C94.0497394,129.214194 94.0269531,129.399739 94.0269531,129.601562 C94.0269531,130.239587 94.2320292,130.765297 94.6421875,131.178711 C95.0523458,131.592124 95.5796843,131.798828 96.2242188,131.798828 C96.4130218,131.798828 96.6164703,131.776042 96.8345703,131.730469 C97.0526704,131.684896 97.3016913,131.613282 97.5816406,131.515625 Z M97.5230469,133.097656 L97.5816406,131.984375 C97.3342436,132.114584 97.0022156,132.290363 96.5855469,132.511719 C95.5048123,133.091149 94.9026048,133.380859 94.7789063,133.380859 C94.1343718,133.380859 93.5565781,133.1237 93.0455078,132.609375 C92.5344375,132.09505 92.2789063,131.486332 92.2789063,130.783203 C92.2789063,129.819657 92.6760377,129.025394 93.4703125,128.400391 C94.2645873,127.775387 95.2834573,127.462891 96.5269531,127.462891 C96.7027353,127.462891 96.8768872,127.472656 97.0494141,127.492188 C97.221941,127.511719 97.399348,127.541015 97.5816406,127.580078 C97.5816406,127.508463 97.5848958,127.412435 97.5914063,127.291992 C97.5979167,127.171549 97.6011719,127.082032 97.6011719,127.023438 C97.6011719,126.255204 97.4172544,125.701825 97.0494141,125.363281 C96.6815737,125.024738 96.0777386,124.855469 95.2378906,124.855469 C94.7626278,124.855469 94.3199239,124.925455 93.9097656,125.06543 C93.4996073,125.205404 93.1252621,125.415363 92.7867188,125.695312 L92.5425781,125.480469 L94.3199219,123.615234 C94.6454443,123.55013 94.9498033,123.501302 95.2330078,123.46875 C95.5162124,123.436198 95.7847644,123.419922 96.0386719,123.419922 C97.2170632,123.419922 98.0927055,123.691729 98.665625,124.235352 C99.2385445,124.778974 99.525,125.607416 99.525,126.720703 C99.525,126.792318 99.5070965,127.524733 99.4712891,128.917969 C99.4354816,130.311205 99.4175781,131.671868 99.4175781,133 L97.5230469,133.097656 Z M106.674219,131.662109 L106.810937,131.896484 C106.205466,132.41732 105.673244,132.794921 105.214258,133.029297 C104.755271,133.263673 104.320705,133.380859 103.910547,133.380859 C103.350648,133.380859 102.96491,133.214845 102.75332,132.882812 C102.541731,132.55078 102.435937,131.717455 102.435937,130.382812 C102.435937,129.894529 102.439193,129.223963 102.445703,128.371094 C102.452214,127.518225 102.455469,126.906252 102.455469,126.535156 C102.455469,126.020831 102.453841,125.635092 102.450586,125.37793 C102.447331,125.120767 102.439193,124.881512 102.426172,124.660156 L101.137109,124.660156 L102.094141,123.78125 L102.455469,123.78125 L102.455469,122.0625 L104.35,121.417969 L104.35,123.78125 L106.791406,123.78125 L105.795312,124.660156 L104.369531,124.660156 C104.363021,125.220055 104.358138,125.762042 104.354883,126.286133 C104.351628,126.810224 104.35,127.355466 104.35,127.921875 L104.35,128.839844 C104.35,130.207038 104.431379,131.061522 104.594141,131.40332 C104.756902,131.745119 105.062888,131.916016 105.512109,131.916016 C105.707423,131.916016 105.901106,131.894857 106.093164,131.852539 C106.285222,131.810221 106.478905,131.746745 106.674219,131.662109 Z M109.604687,119.503906 L111.020703,120.177734 L109.604687,121.779297 L108.178906,121.115234 L109.604687,119.503906 Z M110.698437,123.703125 C110.685417,124.243492 110.675651,124.831052 110.669141,125.46582 C110.66263,126.100589 110.659375,127.059238 110.659375,128.341797 C110.659375,129.624355 110.66263,130.584632 110.669141,131.222656 C110.675651,131.86068 110.685417,132.453122 110.698437,133 L108.676953,133.097656 C108.689974,132.505205 108.69974,131.880212 108.70625,131.222656 C108.71276,130.565101 108.716016,129.637376 108.716016,128.439453 C108.716016,127.24153 108.71276,126.313805 108.70625,125.65625 C108.69974,124.998695 108.689974,124.373701 108.676953,123.78125 L110.698437,123.703125 Z M113.013672,133.097656 C113.026693,132.505205 113.036458,131.880212 113.042969,131.222656 C113.049479,130.565101 113.052734,129.637376 113.052734,128.439453 C113.052734,127.24153 113.049479,126.313805 113.042969,125.65625 C113.036458,124.998695 113.026693,124.373701 113.013672,123.78125 L115.015625,123.703125 C115.015625,123.950522 115.01237,124.215819 115.005859,124.499023 C114.999349,124.782228 114.996094,124.943359 114.996094,124.982422 C115.438804,124.650389 115.86686,124.359051 116.280273,124.108398 C116.693687,123.857746 117.098956,123.641277 117.496094,123.458984 C117.509115,123.458984 117.528646,123.455729 117.554688,123.449219 C117.756511,123.429687 117.902994,123.419922 117.994141,123.419922 C118.378257,123.419922 118.741209,123.493163 119.083008,123.639648 C119.424806,123.786134 119.742186,124.005858 120.035156,124.298828 C120.23047,124.494142 120.368815,124.7513 120.450195,125.070312 C120.531576,125.389325 120.572266,125.95247 120.572266,126.759766 L120.572266,127.023438 C120.572266,127.459638 120.56901,127.897459 120.5625,128.336914 L120.552734,128.996094 C120.552734,129.354168 120.557617,129.863603 120.567383,130.524414 C120.577148,131.185225 120.591797,132.007157 120.611328,132.990234 L118.619141,133.097656 C118.632162,132.622393 118.641927,132.054365 118.648438,131.393555 C118.654948,130.732744 118.658203,129.601571 118.658203,128 C118.658203,127.13411 118.628907,126.546551 118.570312,126.237305 C118.511718,125.928058 118.414063,125.701824 118.277344,125.558594 C118.095051,125.369791 117.854168,125.220053 117.554688,125.109375 C117.255207,124.998697 116.9362,124.943359 116.597656,124.943359 C116.239582,124.943359 115.988933,124.969401 115.845703,125.021484 C115.702473,125.073568 115.591797,125.167968 115.513672,125.304688 C115.311848,125.656252 115.16862,126.107094 115.083984,126.657227 C114.999349,127.20736 114.957031,128.234367 114.957031,129.738281 C114.957031,130.167971 114.961914,130.656247 114.97168,131.203125 C114.981445,131.750003 114.996094,132.348955 115.015625,133 L113.013672,133.097656 Z M128.541797,131.515625 C128.711069,131.203123 128.839648,130.804364 128.927539,130.319336 C129.01543,129.834307 129.059375,129.289066 129.059375,128.683594 C129.059375,127.492182 128.807099,126.549808 128.302539,125.856445 C127.797979,125.163082 127.11602,124.816406 126.256641,124.816406 C126.048306,124.816406 125.839975,124.837565 125.631641,124.879883 C125.423306,124.922201 125.21172,124.982421 124.996875,125.060547 C124.742967,125.307944 124.546029,125.683917 124.406055,126.188477 C124.26608,126.693036 124.196094,127.290361 124.196094,127.980469 C124.196094,129.197923 124.479294,130.135413 125.045703,130.792969 C125.612112,131.450524 126.416141,131.779297 127.457813,131.779297 C127.672657,131.779297 127.86634,131.758138 128.038867,131.71582 C128.211394,131.673502 128.379036,131.606771 128.541797,131.515625 Z M129.879687,131.183594 L127.604297,133.019531 C127.448046,133.136719 127.257618,133.226237 127.033008,133.288086 C126.808397,133.349935 126.549611,133.380859 126.256641,133.380859 C125.097781,133.380859 124.165173,132.998376 123.458789,132.233398 C122.752405,131.468421 122.399219,130.457689 122.399219,129.201172 C122.399219,128.641273 122.477343,128.06348 122.633594,127.467773 C122.789845,126.872067 123.017707,126.268232 123.317188,125.65625 L125.797656,123.703125 C125.882292,123.63151 126.059699,123.566407 126.329883,123.507812 C126.600066,123.449218 126.891405,123.419922 127.203906,123.419922 C128.362766,123.419922 129.26445,123.769853 129.908984,124.469727 C130.553519,125.1696 130.875781,126.14778 130.875781,127.404297 C130.875781,128.016279 130.791147,128.644528 130.621875,129.289062 C130.452603,129.933597 130.20521,130.565101 129.879687,131.183594 Z M132.497656,131.242188 L134.216406,130.421875 C134.476824,131.020836 134.768162,131.470051 135.09043,131.769531 C135.412697,132.069012 135.765883,132.21875 136.15,132.21875 L136.276953,132.21875 C136.420183,132.042968 136.532487,131.841147 136.613867,131.613281 C136.695248,131.385416 136.735938,131.154298 136.735938,130.919922 C136.735938,130.60091 136.641537,130.337241 136.452734,130.128906 C136.263931,129.920572 135.863545,129.682944 135.251563,129.416016 L135.153906,129.376953 C133.487231,128.634762 132.653906,127.736333 132.653906,126.681641 C132.653906,126.173826 132.735286,125.755535 132.898047,125.426758 C133.060808,125.09798 133.334243,124.803387 133.718359,124.542969 C134.200133,124.204425 134.647719,123.932618 135.061133,123.727539 C135.474546,123.52246 135.759374,123.419922 135.915625,123.419922 C136.436461,123.419922 136.913344,123.602212 137.346289,123.966797 C137.779234,124.331382 138.116145,124.835934 138.357031,125.480469 L136.735938,126.339844 C136.534114,125.760414 136.275327,125.335613 135.95957,125.06543 C135.643814,124.795246 135.24831,124.660156 134.773047,124.660156 C134.688411,124.660156 134.623308,124.661784 134.577734,124.665039 C134.532161,124.668294 134.489844,124.676432 134.450781,124.689453 C134.340104,124.832683 134.253841,125.000325 134.191992,125.192383 C134.130143,125.384441 134.099219,125.574869 134.099219,125.763672 C134.099219,126.069663 134.200129,126.343098 134.401953,126.583984 C134.603777,126.824871 134.922784,127.049478 135.358984,127.257812 C135.534767,127.342448 135.795181,127.459635 136.140234,127.609375 C136.960551,127.947918 137.497655,128.26367 137.751563,128.556641 C137.933855,128.758465 138.070572,128.992837 138.161719,129.259766 C138.252865,129.526694 138.298438,129.81966 138.298438,130.138672 C138.298438,130.848311 138.068948,131.452146 137.609961,131.950195 C137.150974,132.448245 136.38438,132.925128 135.310156,133.380859 C134.594007,133.367838 133.993427,133.177411 133.508398,132.80957 C133.02337,132.44173 132.686459,131.919274 132.497656,131.242188 Z M147.342969,119.503906 L148.758984,120.177734 L147.342969,121.779297 L145.917188,121.115234 L147.342969,119.503906 Z M148.436719,123.703125 C148.423698,124.243492 148.413932,124.831052 148.407422,125.46582 C148.400911,126.100589 148.397656,127.059238 148.397656,128.341797 C148.397656,129.624355 148.400911,130.584632 148.407422,131.222656 C148.413932,131.86068 148.423698,132.453122 148.436719,133 L146.415234,133.097656 C146.428255,132.505205 146.438021,131.880212 146.444531,131.222656 C146.451042,130.565101 146.454297,129.637376 146.454297,128.439453 C146.454297,127.24153 146.451042,126.313805 146.444531,125.65625 C146.438021,124.998695 146.428255,124.373701 146.415234,123.78125 L148.436719,123.703125 Z M150.751953,133.097656 C150.764974,132.505205 150.77474,131.880212 150.78125,131.222656 C150.78776,130.565101 150.791016,129.637376 150.791016,128.439453 C150.791016,127.24153 150.78776,126.313805 150.78125,125.65625 C150.77474,124.998695 150.764974,124.373701 150.751953,123.78125 L152.753906,123.703125 C152.753906,123.950522 152.750651,124.215819 152.744141,124.499023 C152.73763,124.782228 152.734375,124.943359 152.734375,124.982422 C153.177086,124.650389 153.605141,124.359051 154.018555,124.108398 C154.431968,123.857746 154.837238,123.641277 155.234375,123.458984 C155.247396,123.458984 155.266927,123.455729 155.292969,123.449219 C155.494793,123.429687 155.641276,123.419922 155.732422,123.419922 C156.116538,123.419922 156.47949,123.493163 156.821289,123.639648 C157.163088,123.786134 157.480467,124.005858 157.773438,124.298828 C157.968751,124.494142 158.107096,124.7513 158.188477,125.070312 C158.269857,125.389325 158.310547,125.95247 158.310547,126.759766 L158.310547,127.023438 C158.310547,127.459638 158.307292,127.897459 158.300781,128.336914 L158.291016,128.996094 C158.291016,129.354168 158.295898,129.863603 158.305664,130.524414 C158.31543,131.185225 158.330078,132.007157 158.349609,132.990234 L156.357422,133.097656 C156.370443,132.622393 156.380208,132.054365 156.386719,131.393555 C156.393229,130.732744 156.396484,129.601571 156.396484,128 C156.396484,127.13411 156.367188,126.546551 156.308594,126.237305 C156.25,125.928058 156.152344,125.701824 156.015625,125.558594 C155.833332,125.369791 155.592449,125.220053 155.292969,125.109375 C154.993488,124.998697 154.674481,124.943359 154.335938,124.943359 C153.977863,124.943359 153.727214,124.969401 153.583984,125.021484 C153.440754,125.073568 153.330079,125.167968 153.251953,125.304688 C153.050129,125.656252 152.906901,126.107094 152.822266,126.657227 C152.73763,127.20736 152.695312,128.234367 152.695312,129.738281 C152.695312,130.167971 152.700195,130.656247 152.709961,131.203125 C152.719727,131.750003 152.734375,132.348955 152.753906,133 L150.751953,133.097656 Z M171.349219,131.662109 L171.485938,131.896484 C170.880466,132.41732 170.348244,132.794921 169.889258,133.029297 C169.430271,133.263673 168.995705,133.380859 168.585547,133.380859 C168.025648,133.380859 167.63991,133.214845 167.42832,132.882812 C167.216731,132.55078 167.110938,131.717455 167.110938,130.382812 C167.110938,129.894529 167.114193,129.223963 167.120703,128.371094 C167.127214,127.518225 167.130469,126.906252 167.130469,126.535156 C167.130469,126.020831 167.128841,125.635092 167.125586,125.37793 C167.122331,125.120767 167.114193,124.881512 167.101172,124.660156 L165.812109,124.660156 L166.769141,123.78125 L167.130469,123.78125 L167.130469,122.0625 L169.025,121.417969 L169.025,123.78125 L171.466406,123.78125 L170.470313,124.660156 L169.044531,124.660156 C169.038021,125.220055 169.033138,125.762042 169.029883,126.286133 C169.026628,126.810224 169.025,127.355466 169.025,127.921875 L169.025,128.839844 C169.025,130.207038 169.106379,131.061522 169.269141,131.40332 C169.431902,131.745119 169.737888,131.916016 170.187109,131.916016 C170.382423,131.916016 170.576106,131.894857 170.768164,131.852539 C170.960222,131.810221 171.153905,131.746745 171.349219,131.662109 Z M173.254297,133.097656 C173.267318,132.518226 173.277083,131.891605 173.283594,131.217773 C173.290104,130.543942 173.293359,129.552741 173.293359,128.244141 L173.293359,125.177734 C173.293359,123.172516 173.290104,121.767908 173.283594,120.963867 C173.277083,120.159827 173.267318,119.477867 173.254297,118.917969 L175.246484,118.839844 C175.239974,119.621098 175.233464,120.26725 175.226953,120.77832 C175.220443,121.289391 175.217188,121.776039 175.217188,122.238281 C175.217188,122.518231 175.220443,122.962562 175.226953,123.571289 C175.233464,124.180016 175.236719,124.650389 175.236719,124.982422 C175.679429,124.650389 176.107485,124.359051 176.520898,124.108398 C176.934312,123.857746 177.339581,123.641277 177.736719,123.458984 C177.74974,123.458984 177.769271,123.455729 177.795313,123.449219 C177.997136,123.429687 178.143619,123.419922 178.234766,123.419922 C178.618882,123.419922 178.981834,123.493163 179.323633,123.639648 C179.665431,123.786134 179.982811,124.005858 180.275781,124.298828 C180.471095,124.494142 180.60944,124.7513 180.69082,125.070312 C180.772201,125.389325 180.812891,125.95247 180.812891,126.759766 L180.812891,127.023438 C180.812891,127.459638 180.809635,127.897459 180.803125,128.336914 L180.793359,128.996094 C180.793359,129.354168 180.798242,129.863603 180.808008,130.524414 C180.817773,131.185225 180.832422,132.007157 180.851953,132.990234 L178.859766,133.097656 C178.872787,132.622393 178.882552,132.054365 178.889063,131.393555 C178.895573,130.732744 178.898828,129.601571 178.898828,128 C178.898828,127.13411 178.869532,126.546551 178.810938,126.237305 C178.752343,125.928058 178.654688,125.701824 178.517969,125.558594 C178.335676,125.369791 178.094793,125.220053 177.795313,125.109375 C177.495832,124.998697 177.176825,124.943359 176.838281,124.943359 C176.480207,124.943359 176.229558,124.969401 176.086328,125.021484 C175.943098,125.073568 175.832422,125.167968 175.754297,125.304688 C175.552473,125.656252 175.409245,126.107094 175.324609,126.657227 C175.239974,127.20736 175.197656,128.234367 175.197656,129.738281 C175.197656,130.167971 175.202539,130.656247 175.212305,131.203125 C175.22207,131.750003 175.236719,132.348955 175.25625,133 L173.254297,133.097656 Z M184.378125,127.443359 L187.903516,127.443359 L187.903516,127.335938 C187.903516,126.528642 187.708205,125.884117 187.317578,125.402344 C186.926951,124.920571 186.409378,124.679688 185.764844,124.679688 C185.641145,124.679688 185.523959,124.689453 185.413281,124.708984 C185.302604,124.728516 185.191928,124.757812 185.08125,124.796875 C184.846874,125.122397 184.671094,125.506508 184.553906,125.949219 C184.436718,126.391929 184.378125,126.889971 184.378125,127.443359 Z M189.798047,131.603516 L189.915234,131.847656 C189.817578,131.90625 189.677605,131.997395 189.495313,132.121094 C188.219264,132.960942 187.307815,133.380859 186.760938,133.380859 C185.504421,133.380859 184.503454,132.970707 183.758008,132.150391 C183.012561,131.330074 182.639844,130.226569 182.639844,128.839844 C182.639844,127.960933 182.766796,127.155277 183.020703,126.422852 C183.274611,125.690426 183.593618,125.16797 183.977734,124.855469 C184.537633,124.419269 185.100778,124.070965 185.667188,123.810547 C186.233597,123.550129 186.705597,123.419922 187.083203,123.419922 C187.897009,123.419922 188.565948,123.763343 189.090039,124.450195 C189.61413,125.137048 189.876172,126.027338 189.876172,127.121094 L189.876172,127.384766 L187.942578,128.322266 L184.417188,128.322266 C184.527865,129.461594 184.921741,130.34863 185.598828,130.983398 C186.275915,131.618167 187.164578,131.935547 188.264844,131.935547 C188.538283,131.935547 188.803579,131.907878 189.060742,131.852539 C189.317905,131.7972 189.563671,131.714193 189.798047,131.603516 Z M208.227344,131.222656 C207.003379,132.042973 206.036592,132.607746 205.326953,132.916992 C204.617314,133.226239 203.969534,133.380859 203.383594,133.380859 C201.541137,133.380859 200.056776,132.772142 198.930469,131.554688 C197.804161,130.337233 197.241016,128.725921 197.241016,126.720703 C197.241016,125.275383 197.532354,124.012375 198.115039,122.931641 C198.697724,121.850906 199.601036,120.900395 200.825,120.080078 C201.703911,119.481117 202.410284,119.077475 202.944141,118.869141 C203.477997,118.660806 204.005336,118.556641 204.526172,118.556641 C205.248832,118.556641 205.925908,118.665689 206.557422,118.883789 C207.188935,119.101889 207.791143,119.435545 208.364063,119.884766 L207.006641,121.515625 C206.485805,121.111977 205.917777,120.812501 205.302539,120.617188 C204.687302,120.421874 204.015108,120.324219 203.285938,120.324219 C202.693487,120.324219 202.149872,120.381184 201.655078,120.495117 C201.160284,120.60905 200.81198,120.75065 200.610156,120.919922 C200.076299,121.343101 199.654754,121.953447 199.345508,122.750977 C199.036261,123.548507 198.881641,124.425776 198.881641,125.382812 C198.881641,126.378911 199.075324,127.300126 199.462695,128.146484 C199.850067,128.992843 200.405075,129.712237 201.127734,130.304688 C201.64857,130.734377 202.254033,131.071288 202.944141,131.31543 C203.634248,131.559572 204.327601,131.681641 205.024219,131.681641 C205.219532,131.681641 205.40996,131.665365 205.595508,131.632812 C205.781056,131.60026 205.951952,131.554688 206.108203,131.496094 C206.140755,130.740882 206.165169,130.036136 206.181445,129.381836 C206.197721,128.727536 206.205859,128.107425 206.205859,127.521484 L206.205859,126.701172 L203.080859,126.701172 L204.399219,125.324219 C204.841929,125.33724 205.341599,125.35026 205.898242,125.363281 C206.454886,125.376302 207.231245,125.389323 208.227344,125.402344 L208.227344,131.222656 Z M215.552344,131.515625 L215.552344,128.800781 C215.155206,128.651041 214.777606,128.540365 214.419531,128.46875 C214.061457,128.397135 213.726173,128.361328 213.413672,128.361328 C213.185806,128.361328 212.98073,128.377604 212.798438,128.410156 C212.616145,128.442708 212.440365,128.491536 212.271094,128.556641 C212.179947,128.712891 212.111589,128.87565 212.066016,129.044922 C212.020442,129.214194 211.997656,129.399739 211.997656,129.601562 C211.997656,130.239587 212.202732,130.765297 212.612891,131.178711 C213.023049,131.592124 213.550387,131.798828 214.194922,131.798828 C214.383725,131.798828 214.587173,131.776042 214.805273,131.730469 C215.023373,131.684896 215.272394,131.613282 215.552344,131.515625 Z M215.49375,133.097656 L215.552344,131.984375 C215.304947,132.114584 214.972919,132.290363 214.55625,132.511719 C213.475515,133.091149 212.873308,133.380859 212.749609,133.380859 C212.105075,133.380859 211.527281,133.1237 211.016211,132.609375 C210.505141,132.09505 210.249609,131.486332 210.249609,130.783203 C210.249609,129.819657 210.646741,129.025394 211.441016,128.400391 C212.23529,127.775387 213.25416,127.462891 214.497656,127.462891 C214.673438,127.462891 214.84759,127.472656 215.020117,127.492188 C215.192644,127.511719 215.370051,127.541015 215.552344,127.580078 C215.552344,127.508463 215.555599,127.412435 215.562109,127.291992 C215.56862,127.171549 215.571875,127.082032 215.571875,127.023438 C215.571875,126.255204 215.387958,125.701825 215.020117,125.363281 C214.652277,125.024738 214.048442,124.855469 213.208594,124.855469 C212.733331,124.855469 212.290627,124.925455 211.880469,125.06543 C211.47031,125.205404 211.095965,125.415363 210.757422,125.695312 L210.513281,125.480469 L212.290625,123.615234 C212.616147,123.55013 212.920506,123.501302 213.203711,123.46875 C213.486915,123.436198 213.755467,123.419922 214.009375,123.419922 C215.187766,123.419922 216.063409,123.691729 216.636328,124.235352 C217.209248,124.778974 217.495703,125.607416 217.495703,126.720703 C217.495703,126.792318 217.4778,127.524733 217.441992,128.917969 C217.406185,130.311205 217.388281,131.671868 217.388281,133 L215.49375,133.097656 Z M219.801172,133.097656 C219.814193,132.251298 219.825586,131.439131 219.835352,130.661133 C219.845117,129.883134 219.85,129.142582 219.85,128.439453 C219.85,127.736325 219.845117,126.995772 219.835352,126.217773 C219.825586,125.439775 219.814193,124.627608 219.801172,123.78125 L221.832422,123.703125 L221.773828,125.021484 C222.262112,124.513669 222.704816,124.119793 223.101953,123.839844 C223.499091,123.559894 223.808332,123.419922 224.029688,123.419922 C224.238022,123.419922 224.465884,123.559894 224.713281,123.839844 C224.960678,124.119793 225.201561,124.513669 225.435938,125.021484 L223.678125,126.261719 C223.528385,125.897134 223.35586,125.59603 223.160547,125.358398 C222.965233,125.120767 222.802475,125.001953 222.672266,125.001953 C222.431379,125.001953 222.224675,125.338864 222.052148,126.012695 C221.879622,126.686527 221.793359,127.547521 221.793359,128.595703 C221.793359,129.7155 221.796615,130.58626 221.803125,131.208008 C221.809635,131.829756 221.819401,132.42708 221.832422,133 L219.801172,133.097656 Z M231.491406,131.515625 L231.491406,128.800781 C231.094269,128.651041 230.716668,128.540365 230.358594,128.46875 C230.000519,128.397135 229.665236,128.361328 229.352734,128.361328 C229.124869,128.361328 228.919793,128.377604 228.7375,128.410156 C228.555207,128.442708 228.379428,128.491536 228.210156,128.556641 C228.11901,128.712891 228.050651,128.87565 228.005078,129.044922 C227.959505,129.214194 227.936719,129.399739 227.936719,129.601562 C227.936719,130.239587 228.141795,130.765297 228.551953,131.178711 C228.962111,131.592124 229.48945,131.798828 230.133984,131.798828 C230.322787,131.798828 230.526236,131.776042 230.744336,131.730469 C230.962436,131.684896 231.211457,131.613282 231.491406,131.515625 Z M231.432813,133.097656 L231.491406,131.984375 C231.244009,132.114584 230.911981,132.290363 230.495313,132.511719 C229.414578,133.091149 228.81237,133.380859 228.688672,133.380859 C228.044137,133.380859 227.466344,133.1237 226.955273,132.609375 C226.444203,132.09505 226.188672,131.486332 226.188672,130.783203 C226.188672,129.819657 226.585803,129.025394 227.380078,128.400391 C228.174353,127.775387 229.193223,127.462891 230.436719,127.462891 C230.612501,127.462891 230.786653,127.472656 230.95918,127.492188 C231.131707,127.511719 231.309114,127.541015 231.491406,127.580078 C231.491406,127.508463 231.494661,127.412435 231.501172,127.291992 C231.507682,127.171549 231.510938,127.082032 231.510938,127.023438 C231.510938,126.255204 231.32702,125.701825 230.95918,125.363281 C230.591339,125.024738 229.987504,124.855469 229.147656,124.855469 C228.672393,124.855469 228.22969,124.925455 227.819531,125.06543 C227.409373,125.205404 227.035028,125.415363 226.696484,125.695312 L226.452344,125.480469 L228.229688,123.615234 C228.55521,123.55013 228.859569,123.501302 229.142773,123.46875 C229.425978,123.436198 229.69453,123.419922 229.948438,123.419922 C231.126829,123.419922 232.002471,123.691729 232.575391,124.235352 C233.14831,124.778974 233.434766,125.607416 233.434766,126.720703 C233.434766,126.792318 233.416862,127.524733 233.381055,128.917969 C233.345247,130.311205 233.327344,131.671868 233.327344,133 L231.432813,133.097656 Z M238.044922,133.419922 C237.882161,133.582683 237.758464,133.764973 237.673828,133.966797 C237.589192,134.168621 237.546875,134.380207 237.546875,134.601562 C237.546875,135.135419 237.766599,135.552082 238.206055,135.851562 C238.64551,136.151043 239.265621,136.300781 240.066406,136.300781 C240.430991,136.300781 240.777668,136.255209 241.106445,136.164062 C241.435223,136.072916 241.713541,135.945964 241.941406,135.783203 C241.973958,135.692057 241.998372,135.589519 242.014648,135.475586 C242.030925,135.361653 242.039062,135.223308 242.039062,135.060547 C242.039062,134.396481 241.879559,133.937501 241.560547,133.683594 C241.241535,133.429686 240.636072,133.302734 239.744141,133.302734 C239.483723,133.302734 239.213543,133.3125 238.933594,133.332031 C238.653644,133.351563 238.357423,133.380859 238.044922,133.419922 Z M241.130859,129.416016 C241.313152,129.220702 241.458007,128.966798 241.56543,128.654297 C241.672852,128.341795 241.726562,128.003257 241.726562,127.638672 C241.726562,126.779293 241.480797,126.077802 240.989258,125.53418 C240.497719,124.990557 239.867842,124.71875 239.099609,124.71875 C239.001953,124.71875 238.90267,124.726888 238.801758,124.743164 C238.700846,124.75944 238.591797,124.787109 238.474609,124.826172 C238.240233,125.0931 238.062826,125.395832 237.942383,125.734375 C237.82194,126.072918 237.761719,126.447264 237.761719,126.857422 C237.761719,127.69727 237.973305,128.358071 238.396484,128.839844 C238.819664,129.321617 239.40234,129.5625 240.144531,129.5625 C240.287761,129.5625 240.44401,129.549479 240.613281,129.523438 C240.782553,129.497396 240.955077,129.461589 241.130859,129.416016 Z M237.400391,130.304688 C236.912107,130.024738 236.541017,129.671552 236.287109,129.245117 C236.033202,128.818683 235.90625,128.328779 235.90625,127.775391 C235.90625,127.274086 236.010416,126.79232 236.21875,126.330078 C236.427084,125.867836 236.700519,125.503257 237.039062,125.236328 C237.72917,124.708982 238.32975,124.303712 238.84082,124.020508 C239.351891,123.737303 239.747394,123.595703 240.027344,123.595703 L244.1875,123.595703 L242.644531,124.660156 C242.930991,124.875001 243.145833,125.146808 243.289062,125.475586 C243.432292,125.804364 243.503906,126.186847 243.503906,126.623047 C243.503906,127.215498 243.359051,127.757485 243.069336,128.249023 C242.779621,128.740562 242.338545,129.197915 241.746094,129.621094 C241.225258,129.992189 240.725588,130.278645 240.24707,130.480469 C239.768552,130.682293 239.353517,130.783203 239.001953,130.783203 C238.826171,130.783203 238.627605,130.755534 238.40625,130.700195 C238.184895,130.644856 237.950522,130.565105 237.703125,130.460938 C237.592447,130.604167 237.511068,130.732747 237.458984,130.84668 C237.406901,130.960613 237.380859,131.072916 237.380859,131.183594 C237.380859,131.463543 237.532225,131.663736 237.834961,131.78418 C238.137697,131.904623 238.673173,131.964844 239.441406,131.964844 C239.64323,131.964844 239.928058,131.953451 240.295898,131.930664 C240.663739,131.907877 240.932291,131.896484 241.101562,131.896484 C241.889327,131.896484 242.502927,132.070636 242.942383,132.418945 C243.381838,132.767254 243.601562,133.247393 243.601562,133.859375 C243.601562,134.308596 243.492514,134.728514 243.274414,135.119141 C243.056314,135.509768 242.706383,135.916665 242.224609,136.339844 C241.697263,136.808596 241.150393,137.155272 240.583984,137.379883 C240.017575,137.604493 239.412113,137.716797 238.767578,137.716797 C237.882157,137.716797 237.156253,137.480797 236.589844,137.008789 C236.023435,136.536781 235.740234,135.939457 235.740234,135.216797 C235.740234,134.943358 236.261062,134.396488 237.302734,133.576172 L237.527344,133.400391 C237.019529,133.400391 236.622397,133.343425 236.335938,133.229492 C236.049478,133.115559 235.90625,132.957683 235.90625,132.755859 C235.90625,132.573567 236.044595,132.248049 236.321289,131.779297 C236.597983,131.310545 236.95768,130.819013 237.400391,130.304688 Z M247.430469,127.443359 L250.955859,127.443359 L250.955859,127.335938 C250.955859,126.528642 250.760549,125.884117 250.369922,125.402344 C249.979295,124.920571 249.461722,124.679688 248.817187,124.679688 C248.693489,124.679688 248.576303,124.689453 248.465625,124.708984 C248.354947,124.728516 248.244271,124.757812 248.133594,124.796875 C247.899218,125.122397 247.723438,125.506508 247.60625,125.949219 C247.489062,126.391929 247.430469,126.889971 247.430469,127.443359 Z M252.850391,131.603516 L252.967578,131.847656 C252.869921,131.90625 252.729949,131.997395 252.547656,132.121094 C251.271608,132.960942 250.360159,133.380859 249.813281,133.380859 C248.556765,133.380859 247.555798,132.970707 246.810352,132.150391 C246.064905,131.330074 245.692187,130.226569 245.692187,128.839844 C245.692187,127.960933 245.819139,127.155277 246.073047,126.422852 C246.326954,125.690426 246.645962,125.16797 247.030078,124.855469 C247.589977,124.419269 248.153122,124.070965 248.719531,123.810547 C249.28594,123.550129 249.757941,123.419922 250.135547,123.419922 C250.949353,123.419922 251.618292,123.763343 252.142383,124.450195 C252.666474,125.137048 252.928516,126.027338 252.928516,127.121094 L252.928516,127.384766 L250.994922,128.322266 L247.469531,128.322266 C247.580209,129.461594 247.974085,130.34863 248.651172,130.983398 C249.328259,131.618167 250.216922,131.935547 251.317187,131.935547 C251.590626,131.935547 251.855923,131.907878 252.113086,131.852539 C252.370249,131.7972 252.616014,131.714193 252.850391,131.603516 Z M259.384375,123.615234 L259.110937,123.380859 C259.390887,123.029295 259.594335,122.726564 259.721289,122.472656 C259.848243,122.218749 259.911719,121.981121 259.911719,121.759766 C259.911719,121.486327 259.822201,121.225913 259.643164,120.978516 C259.464127,120.731119 259.159768,120.444663 258.730078,120.119141 L260.009375,118.556641 C260.458596,118.8431 260.790624,119.140949 261.005469,119.450195 C261.220314,119.759442 261.327734,120.096352 261.327734,120.460938 C261.327734,120.838544 261.177996,121.271482 260.878516,121.759766 C260.579035,122.248049 260.080993,122.866533 259.384375,123.615234 Z M255.810156,123.615234 L255.546484,123.380859 C255.832944,123.029295 256.03802,122.726564 256.161719,122.472656 C256.285417,122.218749 256.347266,121.981121 256.347266,121.759766 C256.347266,121.492837 256.257748,121.235678 256.078711,120.988281 C255.899674,120.740884 255.588804,120.451174 255.146094,120.119141 L256.425391,118.556641 C256.874612,118.8431 257.20664,119.140949 257.421484,119.450195 C257.636329,119.759442 257.74375,120.096352 257.74375,120.460938 C257.74375,120.838544 257.59564,121.271482 257.299414,121.759766 C257.003189,122.248049 256.506774,122.866533 255.810156,123.615234 Z" id="Listen-to-Manuel-Ort"></path>
            </g>
        </g>
    </g>
</svg>