<svg width="378" height="144" viewBox="0 0 378 144" xmlns="http://www.w3.org/2000/svg"><title>Group 5</title><g fill-rule="evenodd"><path d="M32 82.844C15.898 82.844 2.844 95.898 2.844 112c0 16.102 13.054 29.156 29.156 29.156 16.102 0 29.156-13.054 29.156-29.156 0-16.102-13.054-29.156-29.156-29.156M32 144c-17.673 0-32-14.327-32-32 0-17.673 14.327-32 32-32 17.673 0 32 14.327 32 32-.02 17.665-14.335 31.98-32 32"/><path d="M26.532 103.716v16.569L40.882 112l-14.35-8.284zm-1.423 20.451a1.422 1.422 0 0 1-1.422-1.422v-21.49a1.422 1.422 0 0 1 2.134-1.23l18.616 10.745a1.423 1.423 0 0 1 0 2.46l-18.616 10.752a1.432 1.432 0 0 1-.712.185z"/><path d="M26.796 121.8c-.66 0-1.196-.535-1.196-1.196v-18.076a1.196 1.196 0 0 1 1.794-1.034l15.66 9.038a1.197 1.197 0 0 1 0 2.07l-15.66 9.042a1.199 1.199 0 0 1-.598.156M54.816 64h4.281V0h-4.281v64zm-8.564-6.4h4.282V6.4h-4.282v51.2zm-17.126-6.4h4.282V12.8h-4.282v38.4zm34.253-2.133h4.281V14.933h-4.28v34.134zm-42.816-2.134h4.284V17.07h-4.284v29.864zM71.942 44.8h4.281V19.2h-4.281v25.6zm-34.253 0h4.284V19.2h-4.284v25.6zM12 40.533h4.282V23.467H12v17.066zM123.32 64h4.282V0h-4.282v64zm-8.563-6.4h4.282V6.4h-4.282v51.2zm-17.126-6.4h4.282V12.8H97.63v38.4zm34.252-2.133h4.282V14.933h-4.282v34.134zm-42.815-2.134h4.284V17.07h-4.284v29.864zm51.379-2.133h4.281V19.2h-4.281v25.6zm-34.253 0h4.284V19.2h-4.284v25.6zm-25.69-4.267h4.282V23.467h-4.281v17.066zM191.825 64h4.282V0h-4.282v64zm-8.563-6.4h4.282V6.4h-4.282v51.2zm-17.126-6.4h4.281V12.8h-4.281v38.4zm34.252-2.133h4.282V14.933h-4.282v34.134zm-42.815-2.134h4.284V17.07h-4.284v29.864zM208.95 44.8h4.282V19.2h-4.282v25.6zm-34.252 0h4.284V19.2h-4.284v25.6zm-25.69-4.267h4.282V23.467h-4.281v17.066zM260.33 64h4.282V0h-4.282v64zm-8.563-6.4h4.282V6.4h-4.282v51.2zm-17.126-6.4h4.281V12.8h-4.281v38.4zm34.252-2.133h4.282V14.933h-4.282v34.134zm-42.815-2.134h4.283V17.07h-4.283v29.864zm51.378-2.133h4.282V19.2h-4.282v25.6zm-34.252 0h4.284V19.2h-4.284v25.6zm-25.69-4.267h4.282V23.467h-4.281v17.066zM328.835 64h4.282V0h-4.282v64zm-8.563-6.4h4.281V6.4h-4.281v51.2zm-17.126-6.4h4.281V12.8h-4.281v38.4zm34.252-2.133h4.282V14.933h-4.282v34.134zm-42.815-2.134h4.283V17.07h-4.283v29.864zM345.96 44.8h4.282V19.2h-4.282v25.6zm-34.252 0h4.283V19.2h-4.283v25.6zm-25.69-4.267h4.282V23.467h-4.282v17.066zM74.24 109c.046-1.01.08-2.093.103-3.252.023-1.159.034-2.409.034-3.75 0-1.335-.011-2.588-.034-3.76a137.165 137.165 0 0 0-.103-3.32l2.451-.078a193.777 193.777 0 0 0-.127 7.08c0 .983.02 2.653.059 5.01.007.319.013.563.02.732h1.22c.808 0 1.503-.008 2.085-.024a39.94 39.94 0 0 0 1.587-.074 9.95 9.95 0 0 0-.288.66c-.094.237-.197.529-.308.874a91.646 91.646 0 0 0-1.635-.074 37.097 37.097 0 0 0-1.265-.024H74.24zm9.952-13.496l1.416.674-1.416 1.601-1.426-.664 1.426-1.611zm1.094 4.2c-.013.54-.023 1.127-.03 1.762-.006.635-.01 1.593-.01 2.876 0 1.282.004 2.243.01 2.88.007.639.017 1.231.03 1.778l-2.022.098c.013-.593.023-1.218.03-1.875.006-.658.01-1.586.01-2.784 0-1.197-.004-2.125-.01-2.783-.007-.657-.017-1.282-.03-1.875l2.022-.078zm2.14 7.538l1.718-.82c.26.599.552 1.048.874 1.348.322.299.676.449 1.06.449h.127a2.03 2.03 0 0 0 .337-.606c.081-.228.122-.459.122-.693 0-.32-.095-.583-.284-.791-.188-.208-.589-.446-1.2-.713l-.098-.039c-1.667-.742-2.5-1.64-2.5-2.695 0-.508.081-.926.244-1.255.163-.329.436-.624.82-.884.482-.339.93-.61 1.343-.815.413-.206.698-.308.854-.308.521 0 .998.182 1.431.547.433.364.77.869 1.01 1.513l-1.62.86c-.202-.58-.46-1.004-.777-1.275-.315-.27-.711-.405-1.186-.405-.085 0-.15.002-.196.005a.517.517 0 0 0-.126.024 1.663 1.663 0 0 0-.26.503 1.856 1.856 0 0 0-.092.572c0 .306.1.58.303.82.202.24.52.465.957.674.176.084.436.202.781.351.82.339 1.357.655 1.611.948.183.201.32.436.41.703.092.267.137.56.137.879 0 .71-.23 1.313-.688 1.811-.46.498-1.226.975-2.3 1.43-.716-.012-1.317-.203-1.802-.57-.485-.368-.822-.89-1.01-1.568zm12.871.42l.137.234c-.605.521-1.138.899-1.597 1.133-.459.235-.893.352-1.303.352-.56 0-.946-.166-1.158-.498-.211-.332-.317-1.166-.317-2.5 0-.488.003-1.159.01-2.012.006-.853.01-1.465.01-1.836 0-.514-.002-.9-.005-1.157a15.643 15.643 0 0 0-.025-.718H94.76l.957-.879h.362v-1.719l1.894-.644v2.363h2.441l-.996.88h-1.425a300.461 300.461 0 0 0-.02 3.26v.919c0 1.367.081 2.222.244 2.563.163.342.469.513.918.513.195 0 .39-.021.581-.063a3.28 3.28 0 0 0 .581-.19zm3.224-4.219h3.525v-.107c0-.807-.195-1.452-.586-1.934-.39-.481-.908-.722-1.553-.722a2.022 2.022 0 0 0-.683.117c-.235.325-.41.71-.528 1.152a5.858 5.858 0 0 0-.175 1.494zm5.42 4.16l.117.245c-.098.058-.238.15-.42.273-1.276.84-2.188 1.26-2.734 1.26-1.257 0-2.258-.41-3.003-1.23-.746-.82-1.119-1.924-1.119-3.311 0-.88.127-1.685.381-2.417.254-.733.573-1.255.957-1.568a8.621 8.621 0 0 1 1.69-1.044c.566-.26 1.038-.391 1.416-.391.814 0 1.483.343 2.007 1.03s.786 1.577.786 2.671v.264l-1.934.937h-3.525c.11 1.14.504 2.027 1.181 2.661.677.635 1.566.953 2.666.953.274 0 .54-.028.796-.083.257-.056.503-.139.738-.25zm1.856 1.495c.013-.593.023-1.218.03-1.875.006-.658.009-1.586.009-2.784 0-1.197-.003-2.125-.01-2.783-.006-.657-.016-1.282-.03-1.875l2.003-.078c0 .248-.003.513-.01.796l-.01.483a16.05 16.05 0 0 1 1.284-.874c.414-.25.82-.467 1.216-.649a.267.267 0 0 0 .059-.01c.202-.02.348-.03.44-.03.383 0 .746.074 1.088.22.342.147.66.367.952.66.196.195.334.452.415.771.082.32.122.882.122 1.69v.263c0 .437-.003.874-.01 1.314l-.01.66c0 .357.006.867.016 1.527.01.661.024 1.483.044 2.466l-1.993.108c.013-.476.023-1.044.03-1.704.006-.661.01-1.792.01-3.394 0-.866-.03-1.453-.088-1.763-.06-.309-.157-.535-.293-.678a1.901 1.901 0 0 0-.723-.45c-.3-.11-.619-.166-.957-.166-.358 0-.609.026-.752.078a.615.615 0 0 0-.332.284c-.202.351-.345.802-.43 1.352-.084.55-.127 1.577-.127 3.081a81 81 0 0 0 .015 1.465c.01.547.024 1.146.044 1.797l-2.002.098zm20.597-1.436l.137.234c-.606.521-1.138.899-1.597 1.133-.459.235-.893.352-1.304.352-.56 0-.945-.166-1.157-.498-.211-.332-.317-1.166-.317-2.5 0-.488.003-1.159.01-2.012.006-.853.01-1.465.01-1.836a100 100 0 0 0-.005-1.157 15.643 15.643 0 0 0-.025-.718h-1.289l.957-.879h.361v-1.719l1.895-.644v2.363h2.441l-.996.88h-1.426a300.481 300.481 0 0 0-.02 3.26v.919c0 1.367.082 2.222.245 2.563.163.342.469.513.918.513.195 0 .389-.021.581-.063a3.28 3.28 0 0 0 .581-.19zm7.628-.146c.17-.313.298-.712.386-1.197a9.21 9.21 0 0 0 .131-1.635c0-1.192-.252-2.134-.756-2.828-.505-.693-1.187-1.04-2.046-1.04a3.15 3.15 0 0 0-.625.064 4.45 4.45 0 0 0-.635.18c-.254.248-.45.624-.59 1.128-.14.505-.21 1.102-.21 1.792 0 1.218.282 2.155.849 2.813.566.658 1.37.986 2.412.986.215 0 .408-.02.58-.063.173-.042.341-.11.504-.2zm1.338-.332l-2.276 1.836a1.69 1.69 0 0 1-.57.268 2.934 2.934 0 0 1-.777.093c-1.16 0-2.092-.383-2.798-1.148-.707-.765-1.06-1.775-1.06-3.032 0-.56.078-1.138.235-1.733a9.76 9.76 0 0 1 .683-1.812l2.48-1.953c.085-.071.263-.137.533-.195a4.09 4.09 0 0 1 .874-.088c1.159 0 2.06.35 2.705 1.05.645.7.967 1.678.967 2.934 0 .612-.085 1.24-.254 1.885a8.932 8.932 0 0 1-.742 1.895zm8.566 1.914c.202-1.23.413-2.927.635-5.088.22-2.162.475-5.01.761-8.545l-.176-.547 2.256-.078 3.623 11.299a334.48 334.48 0 0 0 2.7-7.07c.642-1.758 1.109-3.142 1.402-4.151l2.353-.078v1.045c0 1.732.05 3.712.152 5.942.1 2.23.246 4.62.434 7.173l-2.275.098a229.491 229.491 0 0 0-.166-5.801 184.833 184.833 0 0 0-.303-5.42 242.804 242.804 0 0 0-2.173 5.59 218.549 218.549 0 0 0-1.987 5.533l-1.494.098c-.267-1.062-.71-2.59-1.328-4.585a279.019 279.019 0 0 0-2.158-6.636c-.241 2.754-.437 5.054-.586 6.9a221.94 221.94 0 0 0-.313 4.223l-1.357.098zm21.73-1.582V104.8a7.261 7.261 0 0 0-1.134-.332 5.144 5.144 0 0 0-1.006-.108c-.227 0-.433.017-.615.05a2.872 2.872 0 0 0-.527.146 1.995 1.995 0 0 0-.274 1.045c0 .638.205 1.163.616 1.577.41.413.937.62 1.582.62.188 0 .392-.023.61-.069a6.09 6.09 0 0 0 .747-.214zm-.06 1.582l.06-1.114c-.248.13-.58.306-.997.528-1.08.58-1.683.869-1.807.869-.644 0-1.222-.257-1.733-.772-.511-.514-.767-1.123-.767-1.826 0-.963.397-1.758 1.192-2.383.794-.625 1.813-.937 3.056-.937.176 0 .35.01.523.03.172.019.35.048.532.087 0-.072.003-.168.01-.288.006-.12.01-.21.01-.269 0-.768-.184-1.321-.552-1.66-.368-.338-.972-.508-1.812-.508-.475 0-.918.07-1.328.21-.41.14-.784.35-1.123.63l-.244-.215 1.777-1.865c.326-.065.63-.114.913-.146.284-.033.552-.05.806-.05 1.179 0 2.054.273 2.627.816.573.544.86 1.372.86 2.486 0 .071-.018.804-.054 2.197a158.94 158.94 0 0 0-.054 4.082l-1.895.098zm4.23 0c.013-.593.023-1.218.03-1.875.006-.658.009-1.586.009-2.784 0-1.197-.003-2.125-.01-2.783-.006-.657-.016-1.282-.03-1.875l2.003-.078c0 .248-.004.513-.01.796-.007.283-.01.444-.01.483a16.05 16.05 0 0 1 1.284-.874c.414-.25.82-.467 1.216-.649a.267.267 0 0 0 .059-.01c.202-.02.348-.03.44-.03.383 0 .746.074 1.088.22.342.147.66.367.952.66.196.195.334.452.415.771.082.32.122.882.122 1.69v.263c0 .437-.003.874-.01 1.314l-.01.66c0 .357.006.867.015 1.527.01.661.025 1.483.044 2.466l-1.992.108c.013-.476.023-1.044.03-1.704.006-.661.01-1.792.01-3.394 0-.866-.03-1.453-.089-1.763-.058-.309-.156-.535-.293-.678a1.901 1.901 0 0 0-.722-.45c-.3-.11-.619-.166-.957-.166-.358 0-.609.026-.752.078a.615.615 0 0 0-.332.284c-.202.351-.345.802-.43 1.352-.085.55-.127 1.577-.127 3.081a81 81 0 0 0 .015 1.465c.01.547.024 1.146.044 1.797l-2.002.098zm17.403-9.395a193.798 193.798 0 0 0-.059 4.639 185.558 185.558 0 0 0 .059 4.648l-1.992.108a41.896 41.896 0 0 1 .02-1.3c-.47.34-.912.636-1.329.89-.417.253-.817.465-1.201.634a3.198 3.198 0 0 1-.44.02c-.898 0-1.559-.243-1.982-.728-.423-.485-.635-1.242-.635-2.27v-2.54a207.361 207.361 0 0 0-.039-4.023l2.002-.078c-.02.625-.034 1.364-.044 2.217-.01.853-.014 1.82-.014 2.9 0 .801.027 1.364.083 1.69.055.325.154.563.297.713.196.195.445.35.748.464.302.113.62.17.952.17.332 0 .571-.027.717-.083a.627.627 0 0 0 .337-.297c.215-.365.367-.835.454-1.412.088-.576.132-1.583.132-3.022 0-.469-.005-.973-.014-1.514-.01-.54-.025-1.123-.044-1.748l1.992-.078zm3.526 3.74h3.525v-.107c0-.807-.195-1.452-.585-1.934-.391-.481-.909-.722-1.553-.722a2.022 2.022 0 0 0-.684.117c-.234.325-.41.71-.527 1.152a5.856 5.856 0 0 0-.176 1.494zm5.42 4.16l.117.245c-.097.058-.237.15-.42.273-1.276.84-2.187 1.26-2.734 1.26-1.257 0-2.258-.41-3.003-1.23-.745-.82-1.118-1.924-1.118-3.311 0-.88.127-1.685.38-2.417.255-.733.574-1.255.958-1.568a8.621 8.621 0 0 1 1.69-1.044c.566-.26 1.038-.391 1.415-.391.814 0 1.483.343 2.007 1.03s.786 1.577.786 2.671v.264l-1.933.937h-3.526c.11 1.14.505 2.027 1.182 2.661.677.635 1.566.953 2.666.953.273 0 .539-.028.796-.083.257-.056.503-.139.737-.25zm1.954 1.495c.02-.697.03-1.512.034-2.447.003-.934.005-2.485.005-4.653 0-2.161-.002-3.706-.005-4.634a102.29 102.29 0 0 0-.034-2.446l2.021-.078c-.013.742-.022 1.583-.029 2.524-.006.941-.01 2.46-.01 4.556s.004 3.615.01 4.556c.007.94.016 1.782.03 2.524l-2.022.098zm17.248-1.563c.664 0 1.251-.091 1.762-.273.511-.183.851-.417 1.02-.703.28-.482.494-1.034.64-1.656.147-.621.22-1.277.22-1.967 0-1.973-.49-3.555-1.47-4.747-.98-1.191-2.277-1.787-3.891-1.787-.645 0-1.227.091-1.748.274-.521.182-.873.41-1.055.683-.319.482-.574 1.094-.767 1.836a9.007 9.007 0 0 0-.288 2.266c0 1.745.53 3.193 1.587 4.346 1.058 1.152 2.375 1.728 3.95 1.728h.04zm-1.436 1.846c-1.725 0-3.138-.609-4.238-1.826-1.1-1.218-1.65-2.79-1.65-4.717 0-1.42.258-2.656.776-3.711.517-1.055 1.365-2.07 2.544-3.047.631-.514 1.251-.897 1.86-1.147a4.799 4.799 0 0 1 1.84-.376c.645 0 1.269.105 1.87.317a5.032 5.032 0 0 1 1.598.903 6.698 6.698 0 0 1 1.806 2.471c.417.97.625 2.028.625 3.174a7.736 7.736 0 0 1-.615 3.071 7.387 7.387 0 0 1-1.777 2.525c-.905.846-1.72 1.451-2.442 1.816-.722.365-1.455.547-2.197.547zm9.044-.283c.013-.847.024-1.659.034-2.437a177.34 177.34 0 0 0 0-4.443c-.01-.778-.021-1.59-.034-2.437l2.031-.078-.059 1.318c.489-.507.931-.901 1.329-1.181.397-.28.706-.42.927-.42.209 0 .436.14.684.42.247.28.488.674.723 1.181l-1.758 1.24a3.525 3.525 0 0 0-.518-.903c-.195-.237-.358-.356-.488-.356-.241 0-.448.337-.62 1.01-.173.675-.259 1.536-.259 2.584 0 1.12.003 1.99.01 2.612.006.622.016 1.22.029 1.792l-2.031.098zm11.631-1.436l.137.234c-.605.521-1.138.899-1.597 1.133-.459.235-.893.352-1.303.352-.56 0-.946-.166-1.157-.498-.212-.332-.318-1.166-.318-2.5 0-.488.003-1.159.01-2.012.006-.853.01-1.465.01-1.836 0-.514-.002-.9-.005-1.157a15.643 15.643 0 0 0-.025-.718h-1.289l.957-.879h.362v-1.719l1.894-.644v2.363h2.442l-.996.88h-1.426a300.483 300.483 0 0 0-.02 3.26v.919c0 1.367.082 2.222.244 2.563.163.342.47.513.918.513a2.7 2.7 0 0 0 .581-.063 3.28 3.28 0 0 0 .581-.19zm4.025-7.959c-.013.54-.023 1.128-.03 1.763-.006.635-.01 1.593-.01 2.876 0 1.282.004 2.243.01 2.88.007.639.017 1.231.03 1.778l-2.022.098c.013-.593.023-1.218.03-1.875.006-.658.01-1.586.01-2.784 0-1.197-.004-2.125-.01-2.783-.007-.657-.017-1.282-.03-1.875l2.022-.078zm-.293-4.785h1.738l-2.744 3.418h-1.035l2.04-3.418zm2.051 14.18l5.235-7.9h-4.473l.518-1.495h6.015l-5.176 7.813h1.983c.963 0 1.67-.007 2.119-.02.45-.013.853-.039 1.21-.078l-.458 1.68a34.986 34.986 0 0 0-2.676-.098c-.638 0-1.31.008-2.017.024-.706.017-1.466.041-2.28.074zm25.822-1.875c-1.224.82-2.19 1.385-2.9 1.694-.71.31-1.358.464-1.944.464-1.842 0-3.326-.609-4.453-1.826-1.126-1.218-1.69-2.83-1.69-4.834 0-1.446.292-2.709.875-3.79.582-1.08 1.486-2.03 2.71-2.85.879-.6 1.585-1.004 2.119-1.212a4.33 4.33 0 0 1 1.582-.312c.723 0 1.4.109 2.031.327a6.208 6.208 0 0 1 1.807 1L270 97.517a5.46 5.46 0 0 0-1.704-.899 6.635 6.635 0 0 0-2.016-.293 7.27 7.27 0 0 0-1.631.171c-.495.114-.843.256-1.045.425-.534.423-.955 1.033-1.265 1.831-.309.798-.464 1.675-.464 2.632 0 .996.194 1.917.581 2.763a5.968 5.968 0 0 0 3.482 3.17 6.2 6.2 0 0 0 2.08.366 3.3 3.3 0 0 0 .571-.05c.186-.032.357-.077.513-.136.033-.755.057-1.46.073-2.114a74.98 74.98 0 0 0 .025-1.86v-.82h-3.125l1.318-1.378c.443.013.942.026 1.499.04.557.012 1.333.025 2.33.038v5.82zm8.067.293c.17-.313.298-.712.386-1.197.088-.485.132-1.03.132-1.635 0-1.192-.252-2.134-.757-2.828-.505-.693-1.186-1.04-2.046-1.04-.208 0-.417.022-.625.064a4.45 4.45 0 0 0-.635.18c-.254.248-.45.624-.59 1.128-.14.505-.21 1.102-.21 1.792 0 1.218.283 2.155.85 2.813.566.658 1.37.986 2.411.986.215 0 .409-.02.581-.063.173-.042.34-.11.503-.2zm1.338-.332l-2.275 1.836a1.69 1.69 0 0 1-.572.268 2.934 2.934 0 0 1-.776.093c-1.159 0-2.091-.383-2.798-1.148-.706-.765-1.06-1.775-1.06-3.032 0-.56.079-1.138.235-1.733a9.76 9.76 0 0 1 .684-1.812l2.48-1.953c.085-.071.262-.137.532-.195.27-.059.562-.088.874-.088 1.16 0 2.06.35 2.705 1.05.645.7.967 1.678.967 2.934 0 .612-.084 1.24-.254 1.885a8.932 8.932 0 0 1-.742 1.895zm-2.138-12.266h1.738l-2.744 3.418h-1.036l2.041-3.418zm4.932 14.18c.013-.593.023-1.218.03-1.875.006-.658.009-1.586.009-2.784 0-1.197-.003-2.125-.01-2.783-.006-.657-.016-1.282-.03-1.875l2.003-.078c0 .248-.003.513-.01.796l-.01.483a59.5 59.5 0 0 1 1.138-.776c.472-.316.8-.539.981-.669a2.135 2.135 0 0 1 .703-.117c.463 0 .868.133 1.216.4.349.267.614.655.796 1.162.482-.384.88-.691 1.192-.922.312-.232.57-.412.771-.542a.906.906 0 0 1 .205-.074c.072-.016.157-.024.254-.024.736 0 1.333.17 1.792.513.46.341.721.809.786 1.401.026.176.044.422.054.737.01.316.015.94.015 1.87v.82c0 1.023.003 1.838.01 2.447.006.609.016 1.206.029 1.792l-1.983.098c.02-1.198.035-2.222.044-3.072.01-.85.015-1.525.015-2.026 0-1.217-.129-2.041-.386-2.47-.257-.43-.714-.645-1.372-.645-.221 0-.392.016-.513.049-.12.032-.203.087-.249.166-.182.3-.317.712-.405 1.24-.088.527-.132 1.195-.132 2.002a181.743 181.743 0 0 0 .059 4.658l-2.002.098c.02-.756.034-1.467.044-2.134.01-.667.015-1.288.015-1.86 0-1.856-.12-3.016-.357-3.482-.238-.465-.672-.698-1.304-.698-.56 0-.942.3-1.147.903-.205.602-.308 2.101-.308 4.497 0 .332.005.723.015 1.172.01.45.024.95.044 1.504l-2.002.098zm15.47-5.655h3.525v-.107c0-.807-.195-1.452-.586-1.934-.39-.481-.908-.722-1.553-.722a2.022 2.022 0 0 0-.683.117c-.235.325-.41.71-.528 1.152a5.856 5.856 0 0 0-.176 1.494zm5.42 4.16l.117.245c-.098.058-.238.15-.42.273-1.276.84-2.188 1.26-2.735 1.26-1.256 0-2.257-.41-3.003-1.23-.745-.82-1.118-1.924-1.118-3.311 0-.88.127-1.685.381-2.417.254-.733.573-1.255.957-1.568a8.621 8.621 0 0 1 1.69-1.044c.566-.26 1.038-.391 1.416-.391.813 0 1.482.343 2.006 1.03.524.687.786 1.577.786 2.671v.264l-1.933.937h-3.525c.11 1.14.504 2.027 1.181 2.661.677.635 1.566.953 2.666.953.274 0 .539-.028.796-.083.257-.056.503-.139.737-.25zm1.299 1.495l5.234-7.9h-4.472l.517-1.495h6.016l-5.176 7.813h1.983c.963 0 1.67-.007 2.119-.02.449-.013.853-.039 1.21-.078l-.458 1.68a34.986 34.986 0 0 0-2.676-.098c-.638 0-1.31.008-2.017.024-.706.017-1.466.041-2.28.074zm15.197 0c.013-.847.024-1.659.034-2.437a177.34 177.34 0 0 0 0-4.443c-.01-.778-.021-1.59-.034-2.437l2.031-.078-.058 1.318c.488-.507.93-.901 1.328-1.181.397-.28.706-.42.927-.42.209 0 .437.14.684.42.247.28.488.674.723 1.181l-1.758 1.24a3.525 3.525 0 0 0-.518-.903c-.195-.237-.358-.356-.488-.356-.24 0-.448.337-.62 1.01-.173.675-.259 1.536-.259 2.584 0 1.12.003 1.99.01 2.612.006.622.016 1.22.03 1.792l-2.032.098zm8.028-5.655h3.525v-.107c0-.807-.195-1.452-.586-1.934-.39-.481-.908-.722-1.552-.722a2.022 2.022 0 0 0-.684.117c-.234.325-.41.71-.527 1.152a5.856 5.856 0 0 0-.176 1.494zm5.42 4.16l.117.245c-.098.058-.238.15-.42.273-1.276.84-2.187 1.26-2.734 1.26-1.257 0-2.258-.41-3.003-1.23-.746-.82-1.118-1.924-1.118-3.311 0-.88.127-1.685.38-2.417.254-.733.573-1.255.958-1.568a8.621 8.621 0 0 1 1.689-1.044c.566-.26 1.038-.391 1.416-.391.814 0 1.483.343 2.007 1.03s.786 1.577.786 2.671v.264l-1.934.937h-3.525c.11 1.14.505 2.027 1.182 2.661.677.635 1.565.953 2.666.953.273 0 .538-.028.796-.083.257-.056.503-.139.737-.25zm6.837-.087V104.8a7.261 7.261 0 0 0-1.133-.332 5.144 5.144 0 0 0-1.006-.108c-.228 0-.433.017-.615.05a2.872 2.872 0 0 0-.528.146 1.995 1.995 0 0 0-.273 1.045c0 .638.205 1.163.615 1.577.41.413.938.62 1.582.62.189 0 .392-.023.61-.069a6.05 6.05 0 0 0 .748-.214zm-.059 1.582l.059-1.114c-.248.13-.58.306-.996.528-1.081.58-1.683.869-1.807.869-.645 0-1.222-.257-1.734-.772-.51-.514-.766-1.123-.766-1.826 0-.963.397-1.758 1.191-2.383.795-.625 1.813-.937 3.057-.937.176 0 .35.01.522.03.173.019.35.048.533.087 0-.072.003-.168.01-.288.006-.12.01-.21.01-.269 0-.768-.185-1.321-.553-1.66-.367-.338-.971-.508-1.811-.508-.475 0-.918.07-1.328.21-.41.14-.785.35-1.123.63l-.244-.215 1.777-1.865c.325-.065.63-.114.913-.146a6.98 6.98 0 0 1 .806-.05c1.178 0 2.054.273 2.627.816.573.544.859 1.372.859 2.486 0 .071-.018.804-.054 2.197a158.945 158.945 0 0 0-.053 4.082l-1.895.098zm9.014-1.24c.333-.359.569-.855.708-1.49.14-.635.21-1.71.21-3.227v-1.739a6.012 6.012 0 0 0-1.367-.59 5.11 5.11 0 0 0-1.396-.19 1.764 1.764 0 0 0-.518.077 7.972 7.972 0 0 0-.61 1.826 9.917 9.917 0 0 0-.21 2.051c0 1.042.224 1.867.674 2.476.449.608 1.051.913 1.806.913a6.69 6.69 0 0 0 .303-.03c.11-.012.244-.039.4-.078zm.86 1.24l.039-1.114c-.182.098-.436.241-.762.43-1.126.645-1.793.967-2.002.967-.247 0-.535-.065-.864-.195a4.366 4.366 0 0 1-.952-.528 3.529 3.529 0 0 1-1.133-1.406c-.26-.573-.39-1.224-.39-1.953 0-.866.188-1.75.566-2.652.377-.901.817-1.57 1.318-2.006a5.61 5.61 0 0 1 1.392-.855c.55-.244.971-.366 1.264-.366.098 0 .292.026.581.078.29.052.624.117 1.001.195a22082.406 22082.406 0 0 1-.058-4.775l1.992-.078c-.013.742-.023 1.583-.03 2.524-.006.941-.009 2.46-.009 4.556 0 2.103.003 3.623.01 4.56.006.938.016 1.778.029 2.52l-1.992.098zm5.235-13.594l1.416.674-1.416 1.601-1.426-.664 1.426-1.611zm1.094 4.2c-.013.54-.023 1.127-.03 1.762-.006.635-.01 1.593-.01 2.876 0 1.282.004 2.243.01 2.88.007.639.017 1.231.03 1.778l-2.022.098c.013-.593.023-1.218.03-1.875.006-.658.01-1.586.01-2.784 0-1.197-.004-2.125-.01-2.783-.007-.657-.017-1.282-.03-1.875l2.022-.078zm2.315 9.394c.013-.593.023-1.218.03-1.875.006-.658.01-1.586.01-2.784 0-1.197-.004-2.125-.01-2.783-.007-.657-.017-1.282-.03-1.875l2.002-.078c0 .248-.003.513-.01.796l-.01.483a15.88 15.88 0 0 1 1.285-.874c.413-.25.818-.467 1.215-.649a.267.267 0 0 0 .059-.01c.202-.02.348-.03.44-.03.384 0 .747.074 1.088.22.342.147.66.367.952.66.196.195.334.452.416.771.08.32.122.882.122 1.69v.263c0 .437-.004.874-.01 1.314l-.01.66c0 .357.005.867.015 1.527.01.661.024 1.483.044 2.466l-1.993.108c.013-.476.023-1.044.03-1.704.006-.661.01-1.792.01-3.394 0-.866-.03-1.453-.088-1.763-.059-.309-.157-.535-.293-.678a1.901 1.901 0 0 0-.723-.45c-.3-.11-.618-.166-.957-.166-.358 0-.609.026-.752.078a.615.615 0 0 0-.332.284c-.202.351-.345.802-.43 1.352-.084.55-.127 1.577-.127 3.081a81 81 0 0 0 .015 1.465c.01.547.024 1.146.044 1.797l-2.002.098zm12.188.322a1.698 1.698 0 0 0-.37.547 1.625 1.625 0 0 0-.128.635c0 .533.22.95.66 1.25.439.299 1.059.449 1.86.449.364 0 .711-.046 1.04-.137.329-.091.607-.218.835-.38a1.58 1.58 0 0 0 .073-.308c.016-.114.024-.253.024-.415 0-.665-.16-1.123-.478-1.377-.32-.254-.925-.381-1.817-.381-.26 0-.53.01-.81.029-.28.02-.576.049-.889.088zm3.086-4.004a2.1 2.1 0 0 0 .435-.762c.107-.312.16-.65.16-1.015 0-.86-.245-1.561-.736-2.105-.492-.543-1.122-.815-1.89-.815a1.869 1.869 0 0 0-.625.107c-.234.267-.412.57-.532.908a3.33 3.33 0 0 0-.18 1.123c0 .84.21 1.501.634 1.983.423.482 1.006.722 1.748.722.143 0 .3-.013.469-.039.169-.026.341-.061.517-.107zm-3.73.889c-.489-.28-.86-.633-1.114-1.06-.253-.426-.38-.916-.38-1.47 0-.5.104-.983.312-1.445.208-.462.482-.827.82-1.094.69-.527 1.291-.932 1.802-1.215.511-.284.907-.425 1.187-.425h4.16l-1.543 1.064c.286.215.501.487.644.816.144.328.215.71.215 1.147 0 .592-.145 1.134-.434 1.626-.29.492-.731.949-1.324 1.372-.52.371-1.02.658-1.499.86-.478.201-.893.302-1.245.302-.175 0-.374-.027-.595-.083a4.859 4.859 0 0 1-.704-.24c-.11.144-.192.273-.244.387a.806.806 0 0 0-.078.337c0 .28.152.48.454.6.303.12.839.18 1.607.18.202 0 .486-.01.854-.033s.637-.035.806-.035c.788 0 1.401.175 1.84.523.44.348.66.828.66 1.44 0 .45-.11.87-.327 1.26-.218.39-.568.798-1.05 1.22a5.533 5.533 0 0 1-1.64 1.04 4.882 4.882 0 0 1-1.817.338c-.885 0-1.611-.236-2.178-.708-.566-.472-.85-1.07-.85-1.792 0-.274.521-.82 1.563-1.64l.225-.177c-.508 0-.905-.057-1.192-.17-.286-.114-.43-.272-.43-.474 0-.182.139-.508.416-.977.276-.468.636-.96 1.079-1.474zM80.002 118.557l.254.244c-.28.345-.482.646-.606.903a1.667 1.667 0 0 0-.185.718c0 .26.088.514.264.762.175.247.485.533.927.859l-1.279 1.553c-.456-.287-.79-.581-1.001-.884a1.694 1.694 0 0 1-.317-.991c0-.378.15-.81.449-1.3.3-.487.797-1.11 1.494-1.864zm-3.584 0l.283.244c-.286.345-.491.646-.615.903a1.667 1.667 0 0 0-.186.718c0 .273.09.534.269.781.179.248.483.527.913.84l-1.28 1.553c-.455-.287-.789-.581-1-.884a1.694 1.694 0 0 1-.318-.991c0-.378.148-.81.445-1.3.296-.487.792-1.11 1.489-1.864zM83.675 133c.045-1.01.08-2.093.102-3.252.023-1.159.034-2.409.034-3.75 0-1.335-.011-2.588-.034-3.76a137.165 137.165 0 0 0-.102-3.32l2.45-.078a193.776 193.776 0 0 0-.126 7.08c0 .983.02 2.653.058 5.01.007.319.013.563.02.732h1.22c.808 0 1.503-.008 2.086-.024a40.122 40.122 0 0 0 1.587-.074 9.95 9.95 0 0 0-.289.66c-.094.237-.196.529-.307.874a91.646 91.646 0 0 0-1.636-.074 37.097 37.097 0 0 0-1.265-.024h-3.798zm13.907-1.484V128.8a7.261 7.261 0 0 0-1.133-.332 5.144 5.144 0 0 0-1.006-.108c-.228 0-.433.017-.615.05a2.872 2.872 0 0 0-.528.146 1.995 1.995 0 0 0-.273 1.045c0 .638.205 1.163.615 1.577.41.413.938.62 1.582.62.189 0 .392-.023.61-.069a6.05 6.05 0 0 0 .748-.214zm-.059 1.582l.059-1.114c-.248.13-.58.306-.996.528-1.081.58-1.683.869-1.807.869-.645 0-1.222-.257-1.733-.772-.512-.514-.767-1.123-.767-1.826 0-.963.397-1.758 1.191-2.383.795-.625 1.813-.937 3.057-.937.176 0 .35.01.522.03.173.019.35.048.533.087 0-.072.003-.168.01-.288.006-.12.01-.21.01-.269 0-.768-.185-1.321-.553-1.66-.367-.338-.971-.508-1.811-.508-.475 0-.918.07-1.328.21-.41.14-.785.35-1.123.63l-.244-.215 1.777-1.865c.325-.065.63-.114.913-.146a6.98 6.98 0 0 1 .806-.05c1.178 0 2.054.273 2.627.816.573.544.859 1.372.859 2.486 0 .071-.018.804-.054 2.197a158.943 158.943 0 0 0-.053 4.082l-1.895.098zm9.151-1.436l.137.234c-.606.521-1.138.899-1.597 1.133-.459.235-.893.352-1.303.352-.56 0-.946-.166-1.158-.498-.211-.332-.317-1.166-.317-2.5 0-.488.003-1.159.01-2.012.006-.853.01-1.465.01-1.836a100 100 0 0 0-.005-1.157 15.643 15.643 0 0 0-.025-.718h-1.289l.957-.879h.361v-1.719l1.895-.644v2.363h2.441l-.996.88h-1.425a300.481 300.481 0 0 0-.02 3.26v.919c0 1.367.081 2.222.244 2.563.163.342.469.513.918.513.195 0 .39-.021.581-.063a3.28 3.28 0 0 0 .581-.19zm2.93-12.158l1.417.674-1.416 1.601-1.426-.664 1.426-1.611zm1.094 4.2c-.013.54-.022 1.127-.029 1.762-.006.635-.01 1.593-.01 2.876 0 1.282.004 2.243.01 2.88.007.639.016 1.231.03 1.778l-2.022.098c.013-.593.023-1.218.03-1.875.006-.658.009-1.586.009-2.784 0-1.197-.003-2.125-.01-2.783-.006-.657-.016-1.282-.029-1.875l2.021-.078zm2.316 9.394c.013-.593.022-1.218.029-1.875.006-.658.01-1.586.01-2.784 0-1.197-.004-2.125-.01-2.783-.007-.657-.016-1.282-.03-1.875l2.003-.078c0 .248-.004.513-.01.796-.007.283-.01.444-.01.483.443-.332.87-.623 1.284-.874.414-.25.819-.467 1.216-.649a.267.267 0 0 0 .059-.01c.202-.02.348-.03.44-.03.383 0 .746.074 1.088.22.342.147.66.367.952.66.195.195.334.452.415.771.082.32.122.882.122 1.69v.263c0 .437-.003.874-.01 1.314l-.01.66c0 .357.006.867.015 1.527.01.661.025 1.483.044 2.466l-1.992.108c.013-.476.023-1.044.03-1.704.006-.661.01-1.792.01-3.394 0-.866-.03-1.453-.089-1.763-.058-.309-.156-.535-.293-.678a1.901 1.901 0 0 0-.722-.45c-.3-.11-.619-.166-.957-.166-.358 0-.61.026-.752.078a.615.615 0 0 0-.332.284c-.202.351-.345.802-.43 1.352-.085.55-.127 1.577-.127 3.081a81 81 0 0 0 .015 1.465c.01.547.024 1.146.044 1.797l-2.002.098zm15.528-1.582c.17-.313.298-.712.386-1.197.087-.485.131-1.03.131-1.635 0-1.192-.252-2.134-.756-2.828-.505-.693-1.187-1.04-2.046-1.04a3.15 3.15 0 0 0-.625.064 4.45 4.45 0 0 0-.635.18c-.254.248-.451.624-.59 1.128-.14.505-.21 1.102-.21 1.792 0 1.218.282 2.155.849 2.813.566.658 1.37.986 2.412.986.215 0 .408-.02.58-.063.173-.042.341-.11.504-.2zm1.338-.332l-2.276 1.836a1.69 1.69 0 0 1-.571.268 2.934 2.934 0 0 1-.776.093c-1.16 0-2.092-.383-2.798-1.148-.707-.765-1.06-1.775-1.06-3.032 0-.56.078-1.138.235-1.733a9.76 9.76 0 0 1 .683-1.812l2.48-1.953c.085-.071.263-.137.533-.195a4.09 4.09 0 0 1 .874-.088c1.159 0 2.06.35 2.705 1.05.645.7.967 1.678.967 2.934 0 .612-.085 1.24-.254 1.885a8.932 8.932 0 0 1-.742 1.895zm2.618.058l1.718-.82c.26.599.552 1.048.874 1.348.323.299.676.449 1.06.449h.127a2.03 2.03 0 0 0 .337-.606c.081-.228.122-.459.122-.693 0-.32-.094-.583-.283-.791-.19-.208-.59-.446-1.201-.713l-.098-.039c-1.667-.742-2.5-1.64-2.5-2.695 0-.508.081-.926.244-1.255.163-.329.436-.624.82-.884.482-.339.93-.61 1.343-.815.414-.206.698-.308.855-.308.52 0 .997.182 1.43.547.433.364.77.869 1.011 1.513l-1.621.86c-.202-.58-.46-1.004-.776-1.275-.316-.27-.712-.405-1.187-.405-.085 0-.15.002-.195.005a.517.517 0 0 0-.127.024c-.11.144-.197.311-.259.503a1.856 1.856 0 0 0-.093.572c0 .306.101.58.303.82.202.24.52.465.957.674.176.084.436.202.781.351.82.339 1.358.655 1.612.948.182.201.319.436.41.703.09.267.136.56.136.879 0 .71-.23 1.313-.688 1.811-.459.498-1.226.975-2.3 1.43-.716-.012-1.317-.203-1.802-.57-.485-.368-.822-.89-1.01-1.568zm14.845-11.738l1.416.674-1.416 1.601-1.426-.664 1.426-1.611zm1.094 4.2c-.013.54-.023 1.127-.03 1.762-.006.635-.01 1.593-.01 2.876 0 1.282.004 2.243.01 2.88.007.639.017 1.231.03 1.778l-2.022.098c.013-.593.023-1.218.03-1.875.006-.658.01-1.586.01-2.784 0-1.197-.004-2.125-.01-2.783-.007-.657-.017-1.282-.03-1.875l2.022-.078zm2.315 9.394c.013-.593.023-1.218.03-1.875.006-.658.009-1.586.009-2.784 0-1.197-.003-2.125-.01-2.783-.006-.657-.016-1.282-.029-1.875l2.002-.078c0 .248-.003.513-.01.796l-.01.483a15.88 15.88 0 0 1 1.285-.874c.413-.25.818-.467 1.215-.649a.267.267 0 0 0 .059-.01c.202-.02.348-.03.44-.03.384 0 .746.074 1.088.22.342.147.66.367.952.66.196.195.334.452.415.771.082.32.123.882.123 1.69v.263c0 .437-.004.874-.01 1.314l-.01.66c0 .357.005.867.015 1.527.01.661.024 1.483.044 2.466l-1.993.108c.013-.476.023-1.044.03-1.704.006-.661.01-1.792.01-3.394 0-.866-.03-1.453-.088-1.763-.059-.309-.157-.535-.293-.678a1.901 1.901 0 0 0-.723-.45c-.3-.11-.619-.166-.957-.166-.358 0-.609.026-.752.078a.615.615 0 0 0-.332.284c-.202.351-.345.802-.43 1.352-.084.55-.127 1.577-.127 3.081a81 81 0 0 0 .015 1.465c.01.547.024 1.146.044 1.797l-2.002.098zm20.597-1.436l.137.234c-.606.521-1.138.899-1.597 1.133-.459.235-.893.352-1.303.352-.56 0-.946-.166-1.158-.498-.211-.332-.317-1.166-.317-2.5 0-.488.003-1.159.01-2.012.006-.853.01-1.465.01-1.836a100 100 0 0 0-.005-1.157 15.643 15.643 0 0 0-.025-.718h-1.289l.957-.879h.361v-1.719l1.895-.644v2.363h2.441l-.996.88h-1.425a300.481 300.481 0 0 0-.02 3.26v.919c0 1.367.081 2.222.244 2.563.163.342.469.513.918.513.195 0 .39-.021.581-.063a3.28 3.28 0 0 0 .581-.19zm1.905 1.436c.013-.58.023-1.206.03-1.88.006-.674.01-1.665.01-2.974v-3.066c0-2.005-.004-3.41-.01-4.214-.007-.804-.017-1.486-.03-2.046l1.992-.078a455 455 0 0 1-.019 1.938 114.84 114.84 0 0 0 0 2.793c.006.609.01 1.08.01 1.411.442-.332.87-.623 1.284-.874.413-.25.819-.467 1.216-.649a.267.267 0 0 0 .058-.01c.202-.02.349-.03.44-.03.384 0 .747.074 1.089.22.341.147.659.367.952.66.195.195.333.452.415.771.081.32.122.882.122 1.69v.263c0 .437-.003.874-.01 1.314l-.01.66c0 .357.005.867.015 1.527.01.661.024 1.483.044 2.466l-1.992.108c.013-.476.023-1.044.03-1.704.006-.661.009-1.792.009-3.394 0-.866-.03-1.453-.088-1.763-.059-.309-.156-.535-.293-.678a1.901 1.901 0 0 0-.723-.45c-.3-.11-.618-.166-.957-.166-.358 0-.608.026-.752.078a.615.615 0 0 0-.332.284c-.202.351-.345.802-.43 1.352-.084.55-.126 1.577-.126 3.081 0 .43.005.918.014 1.465.01.547.025 1.146.044 1.797l-2.002.098zm11.124-5.655h3.526v-.107c0-.807-.196-1.452-.586-1.934-.391-.481-.909-.722-1.553-.722a2.022 2.022 0 0 0-.684.117c-.234.325-.41.71-.527 1.152a5.856 5.856 0 0 0-.176 1.494zm5.42 4.16l.117.245c-.097.058-.237.15-.42.273-1.276.84-2.187 1.26-2.734 1.26-1.257 0-2.258-.41-3.003-1.23-.745-.82-1.118-1.924-1.118-3.311 0-.88.127-1.685.38-2.417.255-.733.574-1.255.958-1.568a8.621 8.621 0 0 1 1.69-1.044c.566-.26 1.038-.391 1.415-.391.814 0 1.483.343 2.007 1.03s.786 1.577.786 2.671v.264l-1.933.937h-3.526c.11 1.14.505 2.027 1.182 2.661.677.635 1.566.953 2.666.953.273 0 .539-.028.796-.083.257-.056.503-.139.737-.25zm18.43-.38c-1.225.82-2.191 1.385-2.901 1.694-.71.31-1.357.464-1.943.464-1.843 0-3.327-.609-4.454-1.826-1.126-1.218-1.689-2.83-1.689-4.834 0-1.446.291-2.709.874-3.79.583-1.08 1.486-2.03 2.71-2.85.879-.6 1.585-1.004 2.12-1.212a4.33 4.33 0 0 1 1.581-.312c.723 0 1.4.109 2.031.327a6.208 6.208 0 0 1 1.807 1l-1.357 1.632a5.46 5.46 0 0 0-1.704-.899 6.635 6.635 0 0 0-2.017-.293 7.27 7.27 0 0 0-1.63.171c-.496.114-.844.256-1.046.425-.534.423-.955 1.033-1.264 1.831-.31.798-.464 1.675-.464 2.632 0 .996.193 1.917.58 2.763a5.968 5.968 0 0 0 3.482 3.17 6.2 6.2 0 0 0 2.08.366 3.3 3.3 0 0 0 .572-.05c.185-.032.356-.077.512-.136.033-.755.057-1.46.073-2.114a74.98 74.98 0 0 0 .025-1.86v-.82h-3.125l1.318-1.378c.443.013.943.026 1.5.04.556.012 1.332.025 2.328.038v5.82zm7.324.293V128.8a7.261 7.261 0 0 0-1.132-.332 5.144 5.144 0 0 0-1.006-.108c-.228 0-.433.017-.616.05a2.872 2.872 0 0 0-.527.146 1.995 1.995 0 0 0-.273 1.045c0 .638.205 1.163.615 1.577.41.413.937.62 1.582.62.189 0 .392-.023.61-.069a6.09 6.09 0 0 0 .747-.214zm-.058 1.582l.058-1.114c-.247.13-.58.306-.996.528-1.08.58-1.683.869-1.806.869-.645 0-1.223-.257-1.734-.772-.51-.514-.766-1.123-.766-1.826 0-.963.397-1.758 1.191-2.383s1.813-.937 3.057-.937a5.3 5.3 0 0 1 1.054.117c0-.072.004-.168.01-.288.007-.12.01-.21.01-.269 0-.768-.184-1.321-.552-1.66-.368-.338-.972-.508-1.811-.508-.476 0-.918.07-1.329.21-.41.14-.784.35-1.123.63l-.244-.215 1.778-1.865c.325-.065.63-.114.913-.146.283-.033.551-.05.805-.05 1.179 0 2.054.273 2.627.816.573.544.86 1.372.86 2.486 0 .071-.018.804-.054 2.197a158.945 158.945 0 0 0-.054 4.082l-1.894.098zm4.307 0c.013-.847.025-1.659.034-2.437a177.359 177.359 0 0 0 0-4.443c-.01-.778-.02-1.59-.034-2.437l2.031-.078-.058 1.318c.488-.507.93-.901 1.328-1.181.397-.28.706-.42.928-.42.208 0 .436.14.683.42.248.28.489.674.723 1.181l-1.758 1.24a3.525 3.525 0 0 0-.517-.903c-.196-.237-.359-.356-.489-.356-.24 0-.447.337-.62 1.01-.172.675-.259 1.536-.259 2.584 0 1.12.004 1.99.01 2.612.007.622.016 1.22.03 1.792l-2.032.098zm11.69-1.582V128.8a7.261 7.261 0 0 0-1.132-.332 5.144 5.144 0 0 0-1.006-.108c-.228 0-.433.017-.615.05a2.872 2.872 0 0 0-.528.146 1.995 1.995 0 0 0-.273 1.045c0 .638.205 1.163.615 1.577.41.413.937.62 1.582.62.189 0 .392-.023.61-.069a6.09 6.09 0 0 0 .747-.214zm-.058 1.582l.058-1.114-.996.528c-1.08.58-1.683.869-1.806.869-.645 0-1.223-.257-1.734-.772-.51-.514-.766-1.123-.766-1.826 0-.963.397-1.758 1.191-2.383s1.813-.937 3.057-.937a5.3 5.3 0 0 1 1.054.117c0-.072.004-.168.01-.288.007-.12.01-.21.01-.269 0-.768-.184-1.321-.552-1.66-.368-.338-.971-.508-1.811-.508-.476 0-.918.07-1.328.21-.41.14-.785.35-1.124.63l-.244-.215 1.778-1.865c.325-.065.63-.114.913-.146.283-.033.552-.05.805-.05 1.179 0 2.054.273 2.627.816.573.544.86 1.372.86 2.486 0 .071-.018.804-.054 2.197a158.94 158.94 0 0 0-.054 4.082l-1.894.098zm6.612.322a1.698 1.698 0 0 0-.371.547 1.625 1.625 0 0 0-.127.635c0 .533.22.95.66 1.25.439.299 1.059.449 1.86.449.364 0 .71-.046 1.04-.137.328-.091.607-.218.834-.38a1.58 1.58 0 0 0 .074-.308c.016-.114.024-.253.024-.415 0-.665-.16-1.123-.478-1.377-.32-.254-.925-.381-1.817-.381-.26 0-.53.01-.81.029-.28.02-.577.049-.89.088zm3.086-4.004a2.1 2.1 0 0 0 .434-.762c.108-.312.162-.65.162-1.015 0-.86-.246-1.561-.738-2.105-.491-.543-1.121-.815-1.89-.815a1.869 1.869 0 0 0-.624.107c-.235.267-.412.57-.533.908a3.33 3.33 0 0 0-.18 1.123c0 .84.211 1.501.634 1.983.424.482 1.006.722 1.749.722.143 0 .299-.013.468-.039.17-.026.342-.061.518-.107zm-3.73.889c-.489-.28-.86-.633-1.114-1.06-.254-.426-.38-.916-.38-1.47 0-.5.103-.983.312-1.445.208-.462.482-.827.82-1.094.69-.527 1.29-.932 1.802-1.215.51-.284.906-.425 1.186-.425h4.16l-1.542 1.064c.286.215.5.487.644.816.143.328.215.71.215 1.147 0 .592-.145 1.134-.435 1.626-.29.492-.73.949-1.323 1.372-.52.371-1.02.658-1.499.86-.478.201-.893.302-1.245.302-.176 0-.374-.027-.596-.083a4.859 4.859 0 0 1-.703-.24c-.11.144-.192.273-.244.387a.806.806 0 0 0-.078.337c0 .28.151.48.454.6.303.12.838.18 1.606.18.202 0 .487-.01.855-.033s.636-.035.806-.035c.787 0 1.4.175 1.84.523.44.348.66.828.66 1.44 0 .45-.11.87-.328 1.26-.218.39-.568.798-1.05 1.22a5.533 5.533 0 0 1-1.64 1.04 4.882 4.882 0 0 1-1.816.338c-.886 0-1.612-.236-2.178-.708-.567-.472-.85-1.07-.85-1.792 0-.274.521-.82 1.563-1.64l.224-.177c-.507 0-.905-.057-1.191-.17-.287-.114-.43-.272-.43-.474 0-.182.139-.508.415-.977.277-.468.637-.96 1.08-1.474zm10.03-2.862h3.525v-.107c0-.807-.195-1.452-.586-1.934-.39-.481-.908-.722-1.553-.722a2.022 2.022 0 0 0-.683.117c-.235.325-.41.71-.528 1.152a5.856 5.856 0 0 0-.176 1.494zm5.42 4.16l.117.245c-.098.058-.238.15-.42.273-1.276.84-2.188 1.26-2.735 1.26-1.256 0-2.257-.41-3.003-1.23-.745-.82-1.118-1.924-1.118-3.311 0-.88.127-1.685.381-2.417.254-.733.573-1.255.957-1.568a8.621 8.621 0 0 1 1.69-1.044c.566-.26 1.038-.391 1.416-.391.813 0 1.482.343 2.006 1.03.524.687.787 1.577.787 2.671v.264l-1.934.937h-3.525c.11 1.14.504 2.027 1.181 2.661.677.635 1.566.953 2.666.953.274 0 .539-.028.796-.083.257-.056.503-.139.737-.25zm6.533-7.988l-.273-.234c.28-.352.483-.654.61-.908s.19-.492.19-.713c0-.274-.089-.534-.268-.781-.179-.248-.483-.534-.913-.86l1.28-1.562c.449.286.78.584.995.893.215.31.323.646.323 1.01 0 .379-.15.811-.45 1.3-.299.488-.797 1.107-1.494 1.855zm-3.574 0l-.264-.234c.287-.352.492-.654.616-.908.123-.254.185-.492.185-.713 0-.267-.09-.524-.268-.772-.18-.247-.49-.537-.933-.869l1.28-1.562c.449.286.78.584.995.893.215.31.323.646.323 1.01 0 .379-.148.811-.445 1.3-.296.488-.792 1.107-1.489 1.855z"/></g></svg>