<svg width="81" height="100" viewBox="0 0 81 100" xmlns="http://www.w3.org/2000/svg"><title>mineral</title><path d="M71.755 38.29l-11.463 4.412 5.7 1.967 5.763-6.38zm-5.376 7.98L38.936 99.007l-.208.565 4.663.275c3.77-5.797 29.29-44.44 32.371-49.105l-9.383-4.47zm-7.073-2.61L42.295 89.881l22.97-44.142-.169-.08.004-.004-5.794-1.997zm17.568 7.634a38255.244 38255.244 0 0 0-27.996 42.437l31.584-40.208-.004-.024-3.584-2.205zm.943-11.406L73.49 38.2l-6.378 7.06 9.02 4.297 1.684-9.67zm1.05 1.171l-1.577 9.05 2.968 1.825-1.391-10.875zm-51.35-5.696l-5.948-10.37-1.346-.652-1.373 1.361-4.969 10.606 13.635-.945zm-15.074.97l4.733-8.97-8.13 8.064 3.397.907zm17.773 62.625l-1.867-62.436-14.687 1.027 13.684 61.347 2.87.062zM12.41 37.59l-3.995-1.064L24.73 98.838l1.346.03L12.41 37.591zm10.893-11.759l5.591 9.436.01-.001 7.647-3.024-13.248-6.41zm6.276 10.514l1.872 62.64 1.172.025 4.4-65.642-7.444 2.977zM1.885 84.521l-1.391.466L16.19 98.793l.693.013L1.885 84.52zm4.024-3.609L2.092 79.01l-.53.07-.135.67.64 4.104 3.842-2.942zm.803-.112l12.934 18.06.48.009L8.321 78.467 6.71 80.8zm-5.066 3.343l-.383-3.576-.801 3.973 1.184-.397zm17.455 14.706L6.384 81.093l-4.137 3.17L17.53 98.82l1.572.029zM6.3 80.612l1.657-2.386-5.186.693 3.526 1.696.003-.003zm55.714-55.015l-7.22-7.63-5.136 3.841-12.062 77.738 24.418-73.949zM49.072 20.05l4.683-3.826L48.48.436 36.68 9.27l12.393 10.78zm6.94-3.332l6.439 6.803-.566-11.48L50.255-.155l5.757 16.872zM35.105 10.49l-7.646 5.682.286 10.233 11.01 5.316-4.51 67.687 1.7.102 12.303-78.133L35.105 10.49zM12.494 69.48l2.084-2.215L9.21 65.71l3.28 3.77h.005zm-3.99-3.975l-.546-.158-.25.774-.05 5.442 4.389-1.892-3.543-4.166zm4.376 4.402l10.126 28.935.388-.01-8.488-31.096-2.026 2.171zm-5.518 2.405l-1.49-.066 14.59 26.663.523-.013L7.362 72.312zm.04-5.244l-1.486 4.603 1.268.056.218-4.659zm15.152 31.786L12.499 70.12l-4.728 2.04L21.47 98.883l1.085-.03z" fill-rule="evenodd"/></svg>